<svg width="1920" height="86" viewBox="0 0 1920 86" fill="none" xmlns="http://www.w3.org/2000/svg">
<mask id="path-1-inside-1_92_4" fill="white">
<path d="M0 15.3567C286.34 58.9267 354 70.3567 633 57.3567C912 44.3567 1205 -4.64329 1395 0.356714C1585 5.35671 1920 85.3567 1920 85.3567"/>
</mask>
<path d="M0 15.3567C286.34 58.9267 354 70.3567 633 57.3567C912 44.3567 1205 -4.64329 1395 0.356714C1585 5.35671 1920 85.3567 1920 85.3567" fill="white"/>
<path d="M1395 0.356714L1395.01 -0.143113L1395 0.356714ZM-0.0752151 15.851C1.26617 16.0551 2.60276 16.2585 3.9346 16.4612L4.08506 15.4726C2.75322 15.2699 1.41662 15.0665 0.0752151 14.8624L-0.0752151 15.851ZM11.8689 17.669C14.4949 18.0687 17.1022 18.4657 19.6913 18.8599L19.8418 17.8712C17.2528 17.4771 14.6454 17.0801 12.0194 16.6804L11.8689 17.669ZM27.4644 20.0431C30.1396 20.4503 32.7952 20.8544 35.4314 21.2555L35.5818 20.2669C32.9456 19.8658 30.2901 19.4617 27.6149 19.0545L27.4644 20.0431ZM43.2825 22.4494C45.8805 22.8444 48.4595 23.2362 51.0201 23.625L51.1703 22.6364C48.6097 22.2476 46.0307 21.8557 43.4328 21.4608L43.2825 22.4494ZM58.9973 24.8355C61.6385 25.2359 64.2599 25.633 66.8619 26.0268L67.0116 25.0381C64.4096 24.6443 61.7883 24.2472 59.1472 23.8468L58.9973 24.8355ZM74.6105 27.1982C77.2854 27.6021 79.9397 28.0024 82.574 28.3991L82.7229 27.4102C80.0888 27.0136 77.4346 26.6133 74.7598 26.2094L74.6105 27.1982ZM90.4368 29.5812C93.0423 29.9723 95.6282 30.3598 98.1949 30.7436L98.3428 29.7546C95.7763 29.3708 93.1906 28.9834 90.5852 28.5923L90.4368 29.5812ZM106.162 31.9326C108.798 32.3249 111.413 32.7134 114.008 33.0979L114.155 32.1087C111.56 31.7242 108.945 31.3358 106.309 30.9435L106.162 31.9326ZM121.821 34.2522C124.487 34.6449 127.132 35.0333 129.757 35.4176L129.902 34.4281C127.277 34.0439 124.632 33.6555 121.967 33.2628L121.821 34.2522ZM137.574 36.5577C140.221 36.9424 142.849 37.3227 145.457 37.6987L145.6 36.7089C142.992 36.333 140.365 35.9527 137.717 35.568L137.574 36.5577ZM153.35 38.8312C155.963 39.2045 158.558 39.5733 161.134 39.9376L161.274 38.9474C158.698 38.5832 156.104 38.2145 153.491 37.8413L153.35 38.8312ZM169.09 41.0563C171.723 41.4243 174.337 41.7875 176.932 42.1459L177.069 41.1553C174.474 40.797 171.861 40.4339 169.229 40.0659L169.09 41.0563ZM184.815 43.2268C187.464 43.5876 190.096 43.9433 192.709 44.2937L192.842 43.3026C190.229 42.9522 187.599 42.5967 184.95 42.236L184.815 43.2268ZM200.54 45.3352C203.202 45.6862 205.846 46.0318 208.474 46.3719L208.603 45.3802C205.976 45.0402 203.332 44.6947 200.671 44.3438L200.54 45.3352ZM216.309 47.376C218.969 47.7133 221.612 48.0449 224.239 48.3708L224.363 47.3784C221.736 47.0526 219.094 46.7211 216.435 46.3839L216.309 47.376ZM232.11 49.3354C234.759 49.6559 237.392 49.9706 240.013 50.2794L240.13 49.2863C237.511 48.9776 234.878 48.6631 232.23 48.3426L232.11 49.3354ZM247.91 51.1969C250.552 51.4993 253.182 51.7957 255.8 52.0861L255.91 51.0921C253.293 50.8019 250.665 50.5057 248.024 50.2034L247.91 51.1969ZM263.715 52.949C266.355 53.2318 268.983 53.5083 271.603 53.7786L271.706 52.7839C269.087 52.5137 266.46 52.2373 263.822 51.9547L263.715 52.949ZM279.53 54.5803C282.169 54.8417 284.799 55.0967 287.424 55.3454L287.518 54.3499C284.895 54.1013 282.266 53.8464 279.629 53.5851L279.53 54.5803ZM295.356 56.0798C297.996 56.3182 300.63 56.5503 303.261 56.776L303.346 55.7796C300.717 55.5541 298.084 55.3222 295.446 55.0838L295.356 56.0798ZM311.194 57.438C313.836 57.6522 316.476 57.86 319.114 58.0614L319.19 57.0643C316.553 56.863 313.915 56.6554 311.275 56.4413L311.194 57.438ZM327.045 58.6474C329.689 58.8363 332.333 59.0188 334.98 59.195L335.046 58.1972C332.401 58.0211 329.758 57.8387 327.116 57.6499L327.045 58.6474ZM342.906 59.7029C345.551 59.8659 348.199 60.0225 350.853 60.1728L350.909 59.1744C348.258 59.0242 345.611 58.8676 342.968 58.7048L342.906 59.7029ZM358.778 60.6022C361.423 60.739 364.073 60.8696 366.732 60.994L366.779 59.9951C364.122 59.8707 361.473 59.7402 358.83 59.6035L358.778 60.6022ZM374.659 61.3458C377.302 61.4566 379.953 61.5615 382.615 61.6605L382.653 60.6612C379.992 60.5623 377.342 60.4575 374.701 60.3466L374.659 61.3458ZM390.549 61.9367C393.188 62.0225 395.838 62.1025 398.501 62.1767L398.529 61.1771C395.867 61.1029 393.219 61.0229 390.581 60.9373L390.549 61.9367ZM406.448 62.3806C409.081 62.4423 411.727 62.4985 414.388 62.5493L414.407 61.5495C411.748 61.4987 409.103 61.4425 406.472 61.3809L406.448 62.3806ZM422.36 62.6846C424.983 62.7237 427.622 62.7576 430.277 62.7864L430.288 61.7864C427.634 61.7576 424.997 61.7238 422.375 61.6847L422.36 62.6846ZM438.288 62.8573C440.899 62.8754 443.527 62.8886 446.172 62.8971L446.176 61.8971C443.532 61.8886 440.905 61.8754 438.295 61.8574L438.288 62.8573ZM454.161 62.908C456.783 62.9069 459.423 62.9013 462.081 62.8911L462.078 61.8911C459.42 61.9013 456.782 61.9069 454.161 61.908L454.161 62.908ZM470.031 62.8474C472.673 62.8286 475.334 62.8054 478.015 62.7779L478.004 61.778C475.325 61.8055 472.665 61.8286 470.024 61.8474L470.031 62.8474ZM485.912 62.6852C488.564 62.6502 491.236 62.611 493.928 62.5678L493.912 61.5679C491.221 61.6111 488.55 61.6503 485.899 61.6853L485.912 62.6852ZM501.82 62.4305C504.45 62.3813 507.1 62.3283 509.77 62.2716L509.749 61.2718C507.079 61.3285 504.43 61.3815 501.801 61.4307L501.82 62.4305ZM517.773 62.0917C520.378 62.03 523.002 61.9649 525.646 61.8964L525.62 60.8967C522.976 60.9652 520.353 61.0303 517.75 61.092L517.773 62.0917ZM533.64 61.6804C536.266 61.6066 538.912 61.5296 541.58 61.4492L541.549 60.4497C538.883 60.53 536.237 60.607 533.612 60.6808L533.64 61.6804ZM549.481 61.2037C552.135 61.1187 554.809 61.0306 557.504 60.9393L557.47 59.9399C554.776 60.0311 552.102 60.1192 549.449 60.2042L549.481 61.2037ZM565.398 60.6653C568.017 60.5722 570.655 60.4763 573.314 60.3776L573.277 59.3782C570.619 59.477 567.981 59.5729 565.363 59.666L565.398 60.6653ZM581.351 60.0728C583.957 59.972 586.581 59.8686 589.226 59.7625L589.186 58.7633C586.542 58.8694 583.917 58.9727 581.313 59.0735L581.351 60.0728ZM597.14 59.4398C599.798 59.3297 602.476 59.217 605.174 59.1017L605.131 58.1026C602.433 58.2179 599.756 58.3306 597.099 58.4407L597.14 59.4398ZM613.062 58.7601C615.675 58.6453 618.307 58.5283 620.959 58.4089L620.914 57.4099C618.263 57.5293 615.631 57.6463 613.018 57.761L613.062 58.7601ZM628.972 58.0439C630.318 57.9819 631.668 57.9193 633.023 57.8562L632.977 56.8573C631.622 56.9204 630.271 56.983 628.926 57.045L628.972 58.0439ZM633.023 57.8562C634.347 57.7945 635.671 57.732 636.996 57.6687L636.948 56.6698C635.624 56.7331 634.3 56.7956 632.977 56.8573L633.023 57.8562ZM644.945 57.2794C647.596 57.1465 650.249 57.0105 652.902 56.8714L652.85 55.8728C650.197 56.0118 647.546 56.1478 644.895 56.2807L644.945 57.2794ZM660.86 56.4453C663.508 56.3006 666.157 56.1529 668.806 56.0024L668.75 55.004C666.101 55.1545 663.453 55.3021 660.805 55.4468L660.86 56.4453ZM676.758 55.5422C679.409 55.3859 682.061 55.2269 684.713 55.0651L684.652 54.067C682.001 54.2287 679.349 54.3877 676.699 54.5439L676.758 55.5422ZM692.659 54.5726C695.307 54.4058 697.956 54.2363 700.606 54.0643L700.541 53.0664C697.892 53.2384 695.244 53.4078 692.596 53.5746L692.659 54.5726ZM708.555 53.5406C711.204 53.3637 713.852 53.1842 716.501 53.0024L716.433 52.0047C713.784 52.1865 711.136 52.3659 708.488 52.5429L708.555 53.5406ZM724.445 52.4499C727.093 52.2634 729.742 52.0745 732.39 51.8834L732.318 50.886C729.67 51.0771 727.022 51.2659 724.375 51.4524L724.445 52.4499ZM740.334 51.3034C742.981 51.108 745.629 50.9103 748.276 50.7105L748.201 49.7133C745.554 49.9131 742.907 50.1107 740.26 50.3062L740.334 51.3034ZM756.217 50.1049C758.863 49.901 761.51 49.6951 764.156 49.4872L764.077 48.4903C761.432 48.6981 758.786 48.904 756.14 49.1079L756.217 50.1049ZM772.097 48.8574C774.744 48.6455 777.39 48.4318 780.036 48.2163L779.954 47.2196C777.309 47.435 774.663 47.6487 772.017 47.8605L772.097 48.8574ZM787.971 47.5643C790.617 47.345 793.264 47.124 795.909 46.9014L795.825 45.9049C793.18 46.1275 790.534 46.3485 787.888 46.5677L787.971 47.5643ZM803.846 46.2282C806.491 46.0022 809.135 45.7746 811.779 45.5455L811.692 44.5492C809.049 44.7783 806.406 45.0058 803.761 45.2318L803.846 46.2282ZM819.711 44.8532C822.358 44.6207 825.004 44.3867 827.649 44.1513L827.56 43.1553C824.916 43.3906 822.27 43.6245 819.624 43.8571L819.711 44.8532ZM835.58 43.4413C838.222 43.2032 840.864 42.9639 843.504 42.7234L843.413 41.7275C840.773 41.968 838.132 42.2073 835.49 42.4453L835.58 43.4413ZM851.443 41.9961C854.089 41.7525 856.732 41.5078 859.374 41.262L859.281 40.2663C856.64 40.5121 853.997 40.7568 851.352 41.0003L851.443 41.9961ZM867.295 40.5216C869.942 40.273 872.587 40.0234 875.23 39.7729L875.136 38.7774C872.493 39.0278 869.848 39.2774 867.202 39.5259L867.295 40.5216ZM883.162 39.0181C885.804 38.7656 888.444 38.5123 891.082 38.2583L890.986 37.2629C888.349 37.5169 885.709 37.7702 883.067 38.0226L883.162 39.0181ZM899.009 37.4921C901.656 37.2353 904.301 36.9779 906.944 36.7198L906.847 35.7246C904.204 35.9826 901.56 36.24 898.913 36.4967L899.009 37.4921ZM914.865 35.944C917.506 35.6845 920.145 35.4244 922.782 35.1639L922.684 34.1688C920.047 34.4293 917.408 34.6893 914.767 34.9488L914.865 35.944ZM930.72 34.3777C933.364 34.1152 936.004 33.8524 938.643 33.5892L938.543 32.5942C935.905 32.8573 933.265 33.1201 930.621 33.3826L930.72 34.3777ZM946.549 32.799C949.2 32.5336 951.847 32.268 954.492 32.0023L954.392 31.0073C951.747 31.273 949.1 31.5386 946.45 31.804L946.549 32.799ZM962.417 31.2047C965.056 30.9387 967.692 30.6727 970.325 30.4068L970.224 29.4119C967.591 29.6778 964.956 29.9438 962.317 30.2097L962.417 31.2047ZM978.26 29.6044C980.906 29.3366 983.549 29.0688 986.189 28.8013L986.088 27.8064C983.448 28.0739 980.805 28.3416 978.159 28.6095L978.26 29.6044ZM994.098 27.9994C996.744 27.7311 999.386 27.463 1002.02 27.1953L1001.92 26.2004C999.285 26.4681 996.643 26.7362 993.997 27.0045L994.098 27.9994ZM1009.96 26.3905C1012.6 26.1226 1015.24 25.8552 1017.87 25.5884L1017.77 24.5935C1015.14 24.8603 1012.5 25.1277 1009.86 25.3956L1009.96 26.3905ZM1025.79 24.7866C1028.44 24.5184 1031.09 24.2508 1033.73 23.984L1033.63 22.989C1030.99 23.2559 1028.34 23.5234 1025.69 23.7916L1025.79 24.7866ZM1041.64 23.1859C1044.28 22.9199 1046.92 22.6547 1049.55 22.3904L1049.45 21.3954C1046.82 21.6597 1044.18 21.9249 1041.54 22.1909L1041.64 23.1859ZM1057.5 21.5944C1060.14 21.33 1062.78 21.0667 1065.42 20.8045L1065.32 19.8094C1062.68 20.0717 1060.04 20.335 1057.4 20.5994L1057.5 21.5944ZM1073.32 20.0199C1075.98 19.757 1078.63 19.4953 1081.27 19.235L1081.17 18.2398C1078.53 18.5001 1075.88 18.7618 1073.22 19.0247L1073.32 20.0199ZM1089.19 18.458C1091.83 18.2001 1094.46 17.9437 1097.09 17.6888L1097 16.6934C1094.37 16.9484 1091.73 17.2049 1089.1 17.4628L1089.19 18.458ZM1105.05 16.9199C1107.7 16.6653 1110.34 16.4123 1112.97 16.1611L1112.88 15.1656C1110.24 15.4168 1107.6 15.6698 1104.95 15.9245L1105.05 16.9199ZM1120.87 15.4121C1123.53 15.161 1126.18 14.9119 1128.83 14.6648L1128.74 13.6691C1126.09 13.9162 1123.44 14.1654 1120.78 14.4165L1120.87 15.4121ZM1136.76 13.9296C1139.4 13.6863 1142.03 13.4451 1144.66 13.2062L1144.57 12.2103C1141.94 12.4493 1139.31 12.6905 1136.67 12.9338L1136.76 13.9296ZM1152.62 12.4865C1155.27 12.2489 1157.91 12.0138 1160.55 11.7811L1160.46 10.785C1157.83 11.0177 1155.18 11.2529 1152.53 11.4905L1152.62 12.4865ZM1168.45 11.0893C1171.12 10.858 1173.77 10.6295 1176.42 10.4038L1176.34 9.40739C1173.69 9.63315 1171.03 9.86173 1168.37 10.093L1168.45 11.0893ZM1184.35 9.7352C1186.99 9.51428 1189.63 9.29632 1192.26 9.08143L1192.18 8.08475C1189.55 8.29969 1186.91 8.5177 1184.26 8.73866L1184.35 9.7352ZM1200.23 8.43776C1202.88 8.22643 1205.52 8.01838 1208.15 7.81372L1208.08 6.81673C1205.44 7.02144 1202.8 7.22955 1200.15 7.44093L1200.23 8.43776ZM1216.08 7.20552C1218.75 7.00406 1221.4 6.80625 1224.05 6.61221L1223.98 5.61488C1221.33 5.80898 1218.67 6.00685 1216.01 6.20837L1216.08 7.20552ZM1231.96 6.04152C1234.63 5.85284 1237.28 5.66815 1239.92 5.48759L1239.85 4.48992C1237.21 4.67054 1234.56 4.85528 1231.89 5.04402L1231.96 6.04152ZM1247.88 4.95436C1250.52 4.7809 1253.16 4.61176 1255.78 4.44708L1255.72 3.44905C1253.09 3.61378 1250.46 3.78298 1247.81 3.9565L1247.88 4.95436ZM1263.77 3.95769C1266.43 3.79885 1269.08 3.64481 1271.71 3.49572L1271.66 2.49731C1269.02 2.64647 1266.37 2.80057 1263.71 2.95947L1263.77 3.95769ZM1279.63 3.06151C1282.31 2.91924 1284.97 2.78231 1287.63 2.65086L1287.58 1.65208C1284.92 1.7836 1282.26 1.92059 1279.58 2.06291L1279.63 3.06151ZM1295.55 2.27309C1298.22 2.15101 1300.87 2.03473 1303.52 1.92441L1303.47 0.925281C1300.83 1.03566 1298.17 1.152 1295.5 1.27413L1295.55 2.27309ZM1311.49 1.60844C1314.13 1.50923 1316.76 1.41628 1319.38 1.32975L1319.35 0.330296C1316.73 0.416876 1314.1 0.509879 1311.45 0.609138L1311.49 1.60844ZM1327.4 1.0839C1330.06 1.00883 1332.71 0.940689 1335.34 0.879661L1335.31 -0.12007C1332.68 -0.0590026 1330.03 0.00918065 1327.37 0.084301L1327.4 1.0839ZM1343.3 0.715963C1345.98 0.66825 1348.63 0.628249 1351.28 0.596154L1351.26 -0.403773C1348.62 -0.371654 1345.96 -0.331624 1343.28 -0.283878L1343.3 0.715963ZM1359.19 0.523604C1361.88 0.507093 1364.55 0.499176 1367.2 0.500068L1367.2 -0.499932C1364.55 -0.500824 1361.87 -0.492901 1359.18 -0.476377L1359.19 0.523604ZM1375.12 0.529375C1377.8 0.548556 1380.47 0.577209 1383.12 0.615562L1383.13 -0.384334C1380.48 -0.422722 1377.81 -0.451401 1375.12 -0.4706L1375.12 0.529375ZM1391.06 0.76117C1392.37 0.790433 1393.68 0.822214 1394.99 0.85654L1395.01 -0.143113C1393.71 -0.177476 1392.4 -0.209289 1391.08 -0.238583L1391.06 0.76117ZM1394.99 0.85654C1396.3 0.891086 1397.62 0.929215 1398.95 0.970876L1398.98 -0.0286312C1397.65 -0.0703444 1396.33 -0.108522 1395.01 -0.143113L1394.99 0.85654ZM1406.98 1.26282C1409.66 1.37289 1412.37 1.49642 1415.1 1.633L1415.15 0.63425C1412.42 0.497526 1409.71 0.373863 1407.03 0.263661L1406.98 1.26282ZM1423.09 2.06621C1425.78 2.22261 1428.49 2.39091 1431.22 2.57072L1431.28 1.57288C1428.55 1.39291 1425.84 1.22446 1423.15 1.0679L1423.09 2.06621ZM1439.2 3.12542C1441.87 3.32008 1444.56 3.52513 1447.27 3.74026L1447.34 2.74341C1444.64 2.52811 1441.95 2.32289 1439.28 2.12806L1439.2 3.12542ZM1455.32 4.4062C1457.97 4.63381 1460.64 4.8706 1463.33 5.11627L1463.42 4.12043C1460.73 3.8746 1458.06 3.63764 1455.4 3.40986L1455.32 4.4062ZM1471.42 5.8796C1474.06 6.1366 1476.72 6.40179 1479.4 6.67489L1479.5 5.68007C1476.82 5.40681 1474.16 5.14145 1471.51 4.88428L1471.42 5.8796ZM1487.43 7.51588C1490.1 7.8019 1492.78 8.09542 1495.47 8.39618L1495.58 7.40237C1492.89 7.10145 1490.21 6.80776 1487.54 6.52157L1487.43 7.51588ZM1503.46 9.30683C1506.13 9.61724 1508.81 9.93442 1511.5 10.2581L1511.62 9.2653C1508.93 8.94143 1506.25 8.62408 1503.57 8.31351L1503.46 9.30683ZM1519.5 11.2371C1522.15 11.568 1524.82 11.9049 1527.49 12.2476L1527.62 11.2558C1524.95 10.9129 1522.28 10.5758 1519.62 10.2447L1519.5 11.2371ZM1535.53 13.2929C1538.18 13.6428 1540.84 13.9981 1543.5 14.3586L1543.63 13.3677C1540.97 13.007 1538.31 12.6515 1535.66 12.3015L1535.53 13.2929ZM1551.5 15.4555C1554.16 15.8254 1556.83 16.2001 1559.5 16.5796L1559.64 15.5895C1556.97 15.2099 1554.3 14.835 1551.63 14.465L1551.5 15.4555ZM1567.47 17.7254C1570.14 18.1118 1572.8 18.5027 1575.46 18.8977L1575.61 17.9085C1572.94 17.5133 1570.28 17.1223 1567.62 16.7358L1567.47 17.7254ZM1583.45 20.0926C1586.1 20.4943 1588.76 20.8999 1591.42 21.3092L1591.57 20.3208C1588.91 19.9114 1586.25 19.5057 1583.6 19.1039L1583.45 20.0926ZM1599.4 22.548C1602.06 22.9645 1604.71 23.3845 1607.37 23.8078L1607.53 22.8203C1604.87 22.3969 1602.21 21.9767 1599.55 21.56L1599.4 22.548ZM1615.34 25.0873C1617.99 25.517 1620.65 25.9497 1623.3 26.3852L1623.46 25.3984C1620.81 24.9628 1618.15 24.5299 1615.5 24.1001L1615.34 25.0873ZM1631.27 27.7053C1633.92 28.1479 1636.58 28.5932 1639.22 29.0408L1639.39 28.0548C1636.74 27.6071 1634.09 27.1617 1631.43 26.7189L1631.27 27.7053ZM1647.17 30.3944C1649.84 30.8503 1652.49 31.3085 1655.14 31.7685L1655.31 30.7832C1652.66 30.3231 1650.01 29.8648 1647.34 29.4088L1647.17 30.3944ZM1663.08 33.1542C1665.73 33.6215 1668.39 34.0906 1671.03 34.5611L1671.21 33.5765C1668.56 33.1059 1665.91 32.6367 1663.25 32.1693L1663.08 33.1542ZM1678.99 35.9836C1681.63 36.4592 1684.26 36.9359 1686.89 37.4137L1687.07 36.4298C1684.44 35.9519 1681.81 35.4751 1679.16 34.9994L1678.99 35.9836ZM1694.87 38.873C1697.52 39.3608 1700.16 39.8494 1702.8 40.3385L1702.98 39.3553C1700.35 38.8661 1697.7 38.3774 1695.05 37.8895L1694.87 38.873ZM1710.71 41.817C1713.38 42.3176 1716.03 42.8186 1718.68 43.3194L1718.86 42.3369C1716.22 41.8359 1713.56 41.3349 1710.9 40.8342L1710.71 41.817ZM1726.56 44.8218C1729.23 45.3323 1731.88 45.8426 1734.52 46.3522L1734.71 45.3703C1732.07 44.8606 1729.42 44.3503 1726.75 43.8396L1726.56 44.8218ZM1742.45 47.8898C1745.09 48.4054 1747.72 48.92 1750.33 49.4333L1750.52 48.4521C1747.91 47.9386 1745.28 47.4239 1742.64 46.9083L1742.45 47.8898ZM1758.3 51.0079C1760.94 51.5313 1763.56 52.0531 1766.15 52.5729L1766.35 51.5923C1763.75 51.0724 1761.13 50.5505 1758.49 50.0271L1758.3 51.0079ZM1774.12 54.1739C1776.78 54.7093 1779.41 55.2423 1782.01 55.7724L1782.21 54.7925C1779.61 54.2623 1776.97 53.7292 1774.32 53.1937L1774.12 54.1739ZM1789.92 57.3868C1792.59 57.9347 1795.23 58.479 1797.85 59.0194L1798.05 58.0401C1795.44 57.4996 1792.79 56.9552 1790.12 56.4072L1789.92 57.3868ZM1805.7 60.6474C1808.39 61.2078 1811.04 61.7633 1813.66 62.3135L1813.87 61.3348C1811.25 60.7845 1808.59 60.2289 1805.9 59.6684L1805.7 60.6474ZM1821.47 63.9579C1824.18 64.5304 1826.84 65.0965 1829.46 65.6553L1829.67 64.6772C1827.05 64.1183 1824.38 63.5522 1821.68 62.9795L1821.47 63.9579ZM1837.25 67.322C1839.97 67.9055 1842.64 68.48 1845.25 69.0448L1845.46 68.0674C1842.85 67.5025 1840.18 66.9279 1837.46 66.3443L1837.25 67.322ZM1853.07 70.7436C1855.78 71.3346 1858.42 71.9133 1861 72.4788L1861.21 71.5021C1858.64 70.9365 1855.99 70.3577 1853.28 69.7665L1853.07 70.7436ZM1868.9 74.2217C1871.57 74.8129 1874.15 75.3868 1876.64 75.9422L1876.86 74.9662C1874.37 74.4107 1871.79 73.8367 1869.12 73.2453L1868.9 74.2217ZM1884.65 77.7363C1887.43 78.3628 1890.07 78.9593 1892.56 79.5235L1892.78 78.5483C1890.29 77.9839 1887.65 77.3873 1884.87 76.7607L1884.65 77.7363ZM1900.43 81.3173C1903.37 81.9909 1906 82.5981 1908.31 83.1328L1908.53 82.1586C1906.22 81.6237 1903.59 81.0163 1900.65 80.3425L1900.43 81.3173ZM1915.98 84.9212C1917.26 85.222 1918.24 85.4525 1918.89 85.6078C1919.22 85.6854 1919.47 85.7442 1919.63 85.7837C1919.72 85.8034 1919.78 85.8182 1919.82 85.8281C1919.84 85.8331 1919.86 85.8368 1919.87 85.8393C1919.87 85.8406 1919.88 85.8415 1919.88 85.8421C1919.88 85.8424 1919.88 85.8427 1919.88 85.8428C1919.88 85.8429 1919.88 85.8429 1919.88 85.843C1919.88 85.843 1919.88 85.843 1919.88 85.843C1919.88 85.843 1919.88 85.843 1919.88 85.843C1919.88 85.843 1919.88 85.843 1920 85.3567C1920.12 84.8704 1920.12 84.8704 1920.12 84.8704C1920.12 84.8704 1920.12 84.8704 1920.12 84.8704C1920.12 84.8704 1920.12 84.8703 1920.12 84.8703C1920.12 84.8703 1920.12 84.8702 1920.12 84.8701C1920.11 84.87 1920.11 84.8698 1920.11 84.8694C1920.11 84.8688 1920.11 84.8679 1920.1 84.8666C1920.09 84.8641 1920.07 84.8604 1920.05 84.8554C1920.01 84.8454 1919.95 84.8305 1919.87 84.8108C1919.7 84.7713 1919.45 84.7124 1919.12 84.6347C1918.47 84.4793 1917.49 84.2487 1916.21 83.9477L1915.98 84.9212ZM1395 0.356714L1395.03 -0.64294L1395 0.356714ZM-0.15043 16.3453C1.19095 16.5494 2.52754 16.7528 3.85937 16.9555L4.16029 14.9783C2.82844 14.7756 1.49184 14.5722 0.15043 14.3681L-0.15043 16.3453ZM11.7937 18.1633C14.4197 18.563 17.027 18.96 19.616 19.3542L19.917 17.3769C17.328 16.9828 14.7207 16.5858 12.0947 16.1861L11.7937 18.1633ZM27.3892 20.5374C30.0644 20.9446 32.7199 21.3487 35.3562 21.7498L35.657 19.7725C33.0208 19.3715 30.3653 18.9674 27.6901 18.5602L27.3892 20.5374ZM43.2073 22.9438C45.8053 23.3387 48.3845 23.7305 50.9451 24.1194L51.2453 22.142C48.6848 21.7532 46.1058 21.3614 43.5079 20.9665L43.2073 22.9438ZM58.9223 25.3298C61.5636 25.7303 64.185 26.1274 66.7871 26.5212L67.0864 24.5437C64.4845 24.1499 61.8632 23.7528 59.2221 23.3524L58.9223 25.3298ZM74.5359 27.6926C77.2108 28.0965 79.8652 28.4968 82.4995 28.8935L82.7974 26.9158C80.1633 26.5192 77.5092 26.1189 74.8345 25.715L74.5359 27.6926ZM90.3626 30.0757C92.9682 30.4668 95.5541 30.8543 98.121 31.2381L98.4168 29.2601C95.8503 28.8763 93.2647 28.4889 90.6595 28.0979L90.3626 30.0757ZM106.089 32.4271C108.724 32.8195 111.339 33.208 113.935 33.5925L114.228 31.6141C111.633 31.2296 109.018 30.8412 106.383 30.4489L106.089 32.4271ZM121.748 34.7468C124.414 35.1396 127.059 35.528 129.684 35.9123L129.974 33.9334C127.349 33.5492 124.705 33.1608 122.039 32.7682L121.748 34.7468ZM137.502 37.0525C140.149 37.4372 142.777 37.8176 145.386 38.1935L145.671 36.214C143.063 35.8382 140.436 35.4579 137.789 35.0732L137.502 37.0525ZM153.279 39.3262C155.893 39.6996 158.488 40.0684 161.064 40.4326L161.344 38.4523C158.769 38.0882 156.175 37.7195 153.562 37.3463L153.279 39.3262ZM169.021 41.5515C171.654 41.9196 174.268 42.2828 176.864 42.6412L177.137 40.66C174.543 40.3018 171.93 39.9387 169.298 39.5707L169.021 41.5515ZM184.747 43.7223C187.397 44.0831 190.029 44.4388 192.643 44.7893L192.909 42.807C190.296 42.4567 187.666 42.1012 185.017 41.7406L184.747 43.7223ZM200.474 45.8309C203.137 46.182 205.782 46.5276 208.41 46.8678L208.667 44.8844C206.04 44.5444 203.397 44.199 200.736 43.848L200.474 45.8309ZM216.246 47.872C218.906 48.2094 221.55 48.541 224.178 48.867L224.424 46.8822C221.798 46.5565 219.156 46.2251 216.498 45.8879L216.246 47.872ZM232.05 49.8318C234.699 50.1524 237.333 50.4671 239.954 50.776L240.188 48.7898C237.57 48.4811 234.937 48.1666 232.29 47.8462L232.05 49.8318ZM247.853 51.6937C250.496 51.9962 253.126 52.2926 255.745 52.583L255.965 50.5952C253.349 50.305 250.721 50.0089 248.081 49.7066L247.853 51.6937ZM263.662 53.4462C266.302 53.729 268.931 54.0056 271.552 54.276L271.757 52.2865C269.139 52.0164 266.513 51.7401 263.875 51.4576L263.662 53.4462ZM279.481 55.0778C282.12 55.3393 284.752 55.5944 287.377 55.8432L287.565 53.8521C284.943 53.6036 282.314 53.3488 279.678 53.0876L279.481 55.0778ZM295.311 56.5777C297.952 56.8163 300.587 57.0484 303.218 57.2741L303.389 55.2814C300.761 55.056 298.129 54.8241 295.491 54.5858L295.311 56.5777ZM311.154 57.9363C313.797 58.1506 316.437 58.3585 319.076 58.5599L319.228 56.5657C316.592 56.3645 313.955 56.1569 311.316 55.9429L311.154 57.9363ZM327.009 59.1461C329.654 59.3351 332.299 59.5177 334.946 59.6938L335.079 57.6983C332.435 57.5223 329.793 57.34 327.152 57.1512L327.009 59.1461ZM342.876 60.202C345.521 60.365 348.17 60.5216 350.825 60.672L350.938 58.6752C348.287 58.525 345.641 58.3685 342.999 58.2058L342.876 60.202ZM358.752 61.1015C361.398 61.2383 364.049 61.369 366.709 61.4934L366.802 59.4956C364.146 59.3713 361.498 59.2408 358.856 59.1042L358.752 61.1015ZM374.638 61.8453C377.282 61.9562 379.934 62.0612 382.597 62.1601L382.671 60.1615C380.012 60.0627 377.362 59.9579 374.722 59.8471L374.638 61.8453ZM390.533 62.4365C393.172 62.5222 395.823 62.6022 398.487 62.6765L398.543 60.6773C395.882 60.6031 393.234 60.5232 390.598 60.4375L390.533 62.4365ZM406.437 62.8805C409.07 62.9422 411.717 62.9984 414.378 63.0492L414.416 61.0496C411.758 60.9988 409.114 60.9426 406.483 60.881L406.437 62.8805ZM422.352 63.1846C424.977 63.2236 427.616 63.2575 430.272 63.2863L430.293 61.2864C427.64 61.2577 425.004 61.2238 422.382 61.1848L422.352 63.1846ZM438.285 63.3573C440.897 63.3754 443.525 63.3886 446.171 63.3971L446.177 61.3971C443.534 61.3886 440.908 61.3754 438.298 61.3574L438.285 63.3573ZM454.162 63.408C456.784 63.4069 459.424 63.4013 462.083 63.3911L462.076 61.3911C459.419 61.4013 456.781 61.4069 454.161 61.408L454.162 63.408ZM470.035 63.3474C472.678 63.3286 475.339 63.3054 478.02 63.2779L477.999 61.278C475.32 61.3055 472.661 61.3286 470.021 61.3474L470.035 63.3474ZM485.919 63.1851C488.571 63.1501 491.243 63.111 493.936 63.0678L493.904 61.068C491.213 61.1112 488.543 61.1503 485.893 61.1853L485.919 63.1851ZM501.829 62.9304C504.46 62.8812 507.11 62.8282 509.781 62.7714L509.738 60.7719C507.069 60.8286 504.421 60.8816 501.792 60.9308L501.829 62.9304ZM517.785 62.5915C520.39 62.5299 523.014 62.4648 525.659 62.3962L525.607 60.3969C522.964 60.4654 520.341 60.5305 517.738 60.5921L517.785 62.5915ZM533.654 62.1802C536.28 62.1064 538.927 62.0293 541.595 61.949L541.534 59.9499C538.868 60.0302 536.223 60.1072 533.597 60.181L533.654 62.1802ZM549.497 61.7034C552.151 61.6184 554.826 61.5303 557.521 61.439L557.453 59.4402C554.759 59.5314 552.086 59.6195 549.433 59.7044L549.497 61.7034ZM565.416 61.165C568.035 61.0719 570.674 60.976 573.333 60.8772L573.258 58.8786C570.601 58.9773 567.963 59.0732 565.345 59.1663L565.416 61.165ZM581.371 60.5724C583.976 60.4716 586.601 60.3682 589.246 60.2621L589.166 58.2637C586.522 58.3697 583.898 58.4731 581.293 58.5739L581.371 60.5724ZM597.161 59.9394C599.819 59.8293 602.497 59.7165 605.195 59.6013L605.11 57.6031C602.412 57.7183 599.735 57.831 597.078 57.9411L597.161 59.9394ZM613.084 59.2596C615.697 59.1449 618.33 59.0278 620.981 58.9084L620.891 56.9104C618.24 57.0298 615.609 57.1468 612.996 57.2615L613.084 59.2596ZM628.995 58.5434C630.341 58.4814 631.691 58.4188 633.047 58.3556L632.953 56.3578C631.598 56.4209 630.248 56.4835 628.903 56.5455L628.995 58.5434ZM633.047 58.3556C634.371 58.2939 635.695 58.2314 637.019 58.1681L636.924 56.1704C635.6 56.2337 634.277 56.2961 632.953 56.3578L633.047 58.3556ZM644.97 57.7788C647.622 57.6459 650.275 57.5098 652.928 57.3707L652.823 55.3734C650.171 55.5125 647.52 55.6484 644.87 55.7813L644.97 57.7788ZM660.887 56.9445C663.536 56.7998 666.185 56.6521 668.835 56.5016L668.721 54.5048C666.073 54.6553 663.425 54.8029 660.778 54.9475L660.887 56.9445ZM676.787 56.0413C679.439 55.885 682.091 55.726 684.744 55.5642L684.622 53.5679C681.97 53.7296 679.32 53.8886 676.669 54.0448L676.787 56.0413ZM692.69 55.0716C695.339 54.9048 697.988 54.7353 700.638 54.5633L700.508 52.5675C697.86 52.7394 695.212 52.9088 692.564 53.0756L692.69 55.0716ZM708.588 54.0395C711.237 53.8625 713.886 53.6831 716.536 53.5012L716.398 51.5059C713.75 51.6877 711.103 51.8671 708.455 52.044L708.588 54.0395ZM724.48 52.9487C727.129 52.7621 729.777 52.5732 732.426 52.3821L732.282 50.3873C729.634 50.5784 726.987 50.7671 724.34 50.9536L724.48 52.9487ZM740.371 51.8021C743.018 51.6066 745.666 51.4089 748.313 51.2091L748.163 49.2148C745.516 49.4145 742.87 49.6121 740.223 49.8075L740.371 51.8021ZM756.255 50.6035C758.902 50.3995 761.549 50.1936 764.195 49.9856L764.038 47.9918C761.393 48.1996 758.747 48.4055 756.101 48.6094L756.255 50.6035ZM772.137 49.3558C774.784 49.1439 777.43 48.9302 780.076 48.7146L779.914 46.7212C777.269 46.9367 774.623 47.1504 771.977 47.3621L772.137 49.3558ZM788.012 48.0626C790.659 47.8433 793.305 47.6223 795.951 47.3996L795.783 45.4067C793.138 45.6293 790.493 45.8502 787.847 46.0694L788.012 48.0626ZM803.889 46.7264C806.534 46.5003 809.178 46.2727 811.822 46.0436L811.649 44.0511C809.006 44.2801 806.363 44.5077 803.719 44.7336L803.889 46.7264ZM819.755 45.3513C822.402 45.1187 825.048 44.8847 827.693 44.6494L827.516 42.6572C824.872 42.8925 822.226 43.1265 819.58 43.359L819.755 45.3513ZM835.625 43.9393C838.267 43.7012 840.909 43.4619 843.549 43.2213L843.368 41.2296C840.728 41.4701 838.087 41.7093 835.445 41.9473L835.625 43.9393ZM851.489 42.494C854.135 42.2504 856.778 42.0057 859.42 41.7599L859.235 39.7685C856.594 40.0142 853.951 40.2589 851.306 40.5024L851.489 42.494ZM867.342 41.0194C869.989 40.7708 872.634 40.5212 875.277 40.2707L875.089 38.2796C872.446 38.5301 869.801 38.7796 867.155 39.0281L867.342 41.0194ZM883.21 39.5158C885.852 39.2633 888.492 39.01 891.13 38.756L890.938 36.7652C888.301 37.0192 885.661 37.2725 883.019 37.5249L883.21 39.5158ZM899.058 37.9897C901.705 37.733 904.35 37.4755 906.992 37.2175L906.798 35.2269C904.156 35.485 901.511 35.7424 898.865 35.9991L899.058 37.9897ZM914.914 36.4416C917.555 36.1821 920.194 35.922 922.831 35.6615L922.635 33.6712C919.998 33.9317 917.359 34.1917 914.718 34.4512L914.914 36.4416ZM930.769 34.8753C933.413 34.6128 936.054 34.3499 938.692 34.0868L938.494 32.0966C935.856 32.3598 933.215 32.6226 930.572 32.885L930.769 34.8753ZM946.599 33.2965C949.25 33.0311 951.897 32.7655 954.542 32.4998L954.342 30.5098C951.697 30.7755 949.05 31.0411 946.4 31.3065L946.599 33.2965ZM962.467 31.7022C965.106 31.4362 967.742 31.1702 970.375 30.9043L970.174 28.9144C967.541 29.1803 964.906 29.4463 962.267 29.7122L962.467 31.7022ZM978.31 30.1019C980.956 29.834 983.6 29.5663 986.239 29.2988L986.038 27.3089C983.398 27.5765 980.755 27.8442 978.108 28.112L978.31 30.1019ZM994.148 28.4969C996.794 28.2285 999.437 27.9604 1002.08 27.6927L1001.87 25.7029C999.235 25.9706 996.592 26.2387 993.947 26.5071L994.148 28.4969ZM1010.01 26.8879C1012.65 26.6201 1015.29 26.3527 1017.92 26.0859L1017.72 24.096C1015.09 24.3629 1012.45 24.6303 1009.81 24.8981L1010.01 26.8879ZM1025.84 25.284C1028.49 25.0158 1031.14 24.7483 1033.78 24.4815L1033.58 22.4916C1030.94 22.7584 1028.29 23.026 1025.64 23.2942L1025.84 25.284ZM1041.69 23.6833C1044.33 23.4173 1046.97 23.1522 1049.6 22.8879L1049.4 20.8979C1046.77 21.1622 1044.13 21.4274 1041.49 21.6934L1041.69 23.6833ZM1057.55 22.0919C1060.19 21.8276 1062.83 21.5643 1065.47 21.3021L1065.27 19.3119C1062.63 19.5741 1059.99 19.8375 1057.35 20.1018L1057.55 22.0919ZM1073.37 20.5175C1076.03 20.2545 1078.68 19.9929 1081.32 19.7325L1081.13 17.7422C1078.48 18.0025 1075.83 18.2642 1073.17 18.5272L1073.37 20.5175ZM1089.24 18.9557C1091.88 18.6978 1094.51 18.4413 1097.14 18.1864L1096.95 16.1958C1094.32 16.4507 1091.69 16.7072 1089.05 16.9652L1089.24 18.9557ZM1105.1 17.4176C1107.74 17.163 1110.39 16.91 1113.02 16.6588L1112.83 14.6678C1110.19 14.9191 1107.55 15.1721 1104.91 15.4268L1105.1 17.4176ZM1120.92 15.9099C1123.58 15.6588 1126.23 15.4097 1128.88 15.1626L1128.69 13.1713C1126.04 13.4184 1123.39 13.6676 1120.73 13.9187L1120.92 15.9099ZM1136.8 14.4275C1139.44 14.1842 1142.08 13.9431 1144.7 13.7042L1144.52 11.7124C1141.89 11.9514 1139.26 12.1926 1136.62 12.4359L1136.8 14.4275ZM1152.67 12.9845C1155.32 12.7469 1157.96 12.5118 1160.59 12.2792L1160.42 10.2869C1157.78 10.5196 1155.14 10.7548 1152.49 10.9925L1152.67 12.9845ZM1168.5 11.5874C1171.16 11.3562 1173.82 11.1277 1176.47 10.902L1176.3 8.90919C1173.65 9.13498 1170.99 9.36358 1168.32 9.59488L1168.5 11.5874ZM1184.39 10.2335C1187.04 10.0126 1189.67 9.79463 1192.3 9.57977L1192.14 7.58641C1189.51 7.80137 1186.87 8.01941 1184.22 8.2404L1184.39 10.2335ZM1200.27 8.93617C1202.92 8.72487 1205.56 8.51685 1208.19 8.31221L1208.04 6.31823C1205.4 6.52297 1202.76 6.73111 1200.11 6.94251L1200.27 8.93617ZM1216.12 7.7041C1218.79 7.50267 1221.44 7.30488 1224.09 7.11087L1223.94 5.11622C1221.29 5.31035 1218.64 5.50825 1215.97 5.70979L1216.12 7.7041ZM1232 6.54027C1234.66 6.35162 1237.31 6.16696 1239.95 5.98643L1239.82 3.99108C1237.17 4.17173 1234.52 4.35651 1231.86 4.54528L1232 6.54027ZM1247.91 5.45329C1250.56 5.27985 1253.19 5.11075 1255.81 4.9461L1255.69 2.95003C1253.06 3.1148 1250.43 3.28402 1247.78 3.45758L1247.91 5.45329ZM1263.8 4.4568C1266.46 4.29799 1269.11 4.14398 1271.74 3.99492L1271.63 1.99811C1268.99 2.14729 1266.34 2.30142 1263.68 2.46035L1263.8 4.4568ZM1279.66 3.5608C1282.33 3.41857 1285 3.28167 1287.65 3.15024L1287.55 1.15269C1284.9 1.28424 1282.23 1.42126 1279.55 1.56362L1279.66 3.5608ZM1295.57 2.77257C1298.24 2.65052 1300.89 2.53427 1303.54 2.42398L1303.45 0.425716C1300.81 0.536124 1298.15 0.652491 1295.48 0.774657L1295.57 2.77257ZM1311.5 2.10808C1314.15 2.00891 1316.78 1.91598 1319.4 1.82948L1319.33 -0.169431C1316.71 -0.082826 1314.08 0.0102027 1311.43 0.109489L1311.5 2.10808ZM1327.42 1.5837C1330.07 1.50865 1332.72 1.44053 1335.35 1.37953L1335.3 -0.619935C1332.67 -0.558848 1330.02 -0.490643 1327.36 -0.4155L1327.42 1.5837ZM1343.31 1.21588C1345.98 1.16819 1348.64 1.1282 1351.28 1.09612L1351.26 -0.903736C1348.61 -0.871605 1345.95 -0.831561 1343.27 -0.783798L1343.31 1.21588ZM1359.19 1.02359C1361.88 1.00709 1364.55 0.999177 1367.2 1.00007L1367.2 -0.999932C1364.55 -1.00082 1361.87 -0.992899 1359.18 -0.976367L1359.19 1.02359ZM1375.11 1.02936C1377.8 1.04853 1380.46 1.07717 1383.11 1.11551L1383.14 -0.884281C1380.49 -0.922688 1377.82 -0.95138 1375.13 -0.970587L1375.11 1.02936ZM1391.05 1.26105C1392.36 1.29029 1393.67 1.32206 1394.97 1.35637L1395.03 -0.64294C1393.72 -0.677321 1392.41 -0.709151 1391.09 -0.738459L1391.05 1.26105ZM1394.97 1.35637C1396.29 1.39089 1397.6 1.42899 1398.93 1.47063L1398.99 -0.528385C1397.66 -0.570124 1396.34 -0.608327 1395.03 -0.64294L1394.97 1.35637ZM1406.96 1.7624C1409.64 1.87241 1412.35 1.99587 1415.07 2.13238L1415.17 0.134875C1412.44 -0.00192149 1409.73 -0.125653 1407.05 -0.235918L1406.96 1.7624ZM1423.06 2.56536C1425.75 2.72169 1428.46 2.88991 1431.18 3.06964L1431.32 1.07397C1428.58 0.893908 1425.87 0.725379 1423.18 0.568743L1423.06 2.56536ZM1439.17 3.62409C1441.84 3.81867 1444.52 4.02364 1447.23 4.23869L1447.38 2.24499C1444.68 2.0296 1441.99 1.8243 1439.31 1.62939L1439.17 3.62409ZM1455.28 4.90437C1457.93 5.1319 1460.6 5.3686 1463.28 5.61418L1463.46 3.62251C1460.78 3.37659 1458.1 3.13955 1455.45 2.91168L1455.28 4.90437ZM1471.37 6.37726C1474.02 6.63418 1476.67 6.89928 1479.35 7.1723L1479.55 5.18267C1476.87 4.90931 1474.21 4.64387 1471.56 4.38662L1471.37 6.37726ZM1487.38 8.01303C1490.05 8.29897 1492.73 8.59241 1495.41 8.89309L1495.64 6.90547C1492.94 6.60446 1490.26 6.31068 1487.59 6.02441L1487.38 8.01303ZM1503.4 9.80349C1506.07 10.1138 1508.75 10.4309 1511.44 10.7545L1511.68 8.76889C1508.99 8.44494 1506.31 8.12751 1503.63 7.81685L1503.4 9.80349ZM1519.43 11.7333C1522.09 12.0641 1524.76 12.4009 1527.43 12.7436L1527.68 10.7598C1525.01 10.4168 1522.34 10.0797 1519.68 9.74857L1519.43 11.7333ZM1535.46 13.7886C1538.11 14.1384 1540.77 14.4937 1543.43 14.8541L1543.7 12.8722C1541.04 12.5115 1538.38 12.1559 1535.72 11.8058L1535.46 13.7886ZM1551.43 15.9508C1554.09 16.3205 1556.76 16.6952 1559.43 17.0746L1559.71 15.0945C1557.04 14.7148 1554.37 14.3398 1551.7 13.9698L1551.43 15.9508ZM1567.4 18.2202C1570.06 18.6066 1572.73 18.9973 1575.39 19.3923L1575.68 17.4139C1573.02 17.0187 1570.35 16.6276 1567.69 16.2409L1567.4 18.2202ZM1583.37 20.587C1586.03 20.9886 1588.69 21.3941 1591.35 21.8034L1591.65 19.8266C1588.99 19.4171 1586.33 19.0114 1583.67 18.6095L1583.37 20.587ZM1599.32 23.0419C1601.98 23.4584 1604.64 23.8784 1607.29 24.3016L1607.61 22.3265C1604.95 21.903 1602.29 21.4828 1599.63 21.066L1599.32 23.0419ZM1615.26 25.5808C1617.91 26.0105 1620.56 26.4431 1623.21 26.8786L1623.54 24.9051C1620.89 24.4693 1618.23 24.0364 1615.58 23.6065L1615.26 25.5808ZM1631.19 28.1985C1633.84 28.6411 1636.49 29.0863 1639.14 29.5338L1639.47 27.5618C1636.82 27.114 1634.17 26.6686 1631.52 26.2257L1631.19 28.1985ZM1647.09 30.8872C1649.75 31.3431 1652.41 31.8012 1655.06 32.2611L1655.4 30.2906C1652.75 29.8304 1650.09 29.3721 1647.43 28.9159L1647.09 30.8872ZM1662.99 33.6466C1665.65 34.1139 1668.3 34.5829 1670.95 35.0533L1671.3 33.0842C1668.65 32.6136 1665.99 32.1443 1663.33 31.6768L1662.99 33.6466ZM1678.9 36.4757C1681.54 36.9512 1684.17 37.4279 1686.8 37.9056L1687.16 35.9379C1684.53 35.46 1681.89 34.983 1679.25 34.5073L1678.9 36.4757ZM1694.78 39.3648C1697.43 39.8525 1700.07 40.3411 1702.7 40.8301L1703.07 38.8637C1700.44 38.3745 1697.79 37.8857 1695.14 37.3978L1694.78 39.3648ZM1710.62 42.3084C1713.29 42.809 1715.94 43.3099 1718.58 43.8107L1718.96 41.8457C1716.31 41.3446 1713.66 40.8436 1710.99 40.3428L1710.62 42.3084ZM1726.47 45.3129C1729.14 45.8233 1731.79 46.3335 1734.43 46.8431L1734.81 44.8794C1732.17 44.3696 1729.51 43.8592 1726.85 43.3485L1726.47 45.3129ZM1742.35 48.3806C1744.99 48.8961 1747.62 49.4106 1750.23 49.9239L1750.62 47.9615C1748.01 47.448 1745.38 46.9332 1742.73 46.4176L1742.35 48.3806ZM1758.2 51.4984C1760.84 52.0217 1763.46 52.5434 1766.06 53.0631L1766.45 51.102C1763.85 50.5821 1761.23 50.0602 1758.59 49.5366L1758.2 51.4984ZM1774.02 54.664C1776.68 55.1994 1779.31 55.7323 1781.91 56.2624L1782.31 54.3025C1779.71 53.7722 1777.07 53.2391 1774.42 52.7035L1774.02 54.664ZM1789.82 57.8766C1792.49 58.4244 1795.13 58.9687 1797.75 59.509L1798.15 57.5504C1795.54 57.0099 1792.89 56.4654 1790.22 55.9174L1789.82 57.8766ZM1805.59 61.1369C1808.28 61.6972 1810.94 62.2527 1813.56 62.8028L1813.97 60.8455C1811.35 60.2952 1808.69 59.7395 1806 59.1789L1805.59 61.1369ZM1821.36 64.447C1824.07 65.0196 1826.74 65.5855 1829.36 66.1443L1829.78 64.1882C1827.15 63.6292 1824.49 63.0631 1821.78 62.4903L1821.36 64.447ZM1837.15 67.8108C1839.87 68.3943 1842.53 68.9687 1845.14 69.5335L1845.56 67.5787C1842.95 67.0137 1840.29 66.4391 1837.57 65.8554L1837.15 67.8108ZM1852.96 71.2321C1855.67 71.8231 1858.32 72.4018 1860.89 72.9671L1861.32 71.0137C1858.75 70.4481 1856.1 69.8692 1853.39 69.278L1852.96 71.2321ZM1868.79 74.7099C1871.46 75.3011 1874.05 75.8749 1876.53 76.4302L1876.97 74.4782C1874.48 73.9227 1871.9 73.3486 1869.23 72.7572L1868.79 74.7099ZM1884.54 78.2241C1887.32 78.8505 1889.96 79.4469 1892.45 80.0111L1892.89 78.0608C1890.4 77.4963 1887.76 76.8996 1884.98 76.2729L1884.54 78.2241ZM1900.31 81.8046C1903.25 82.4782 1905.89 83.0853 1908.2 83.6199L1908.65 81.6715C1906.34 81.1365 1903.7 80.529 1900.76 79.8552L1900.31 81.8046ZM1915.87 85.408C1917.15 85.7087 1918.12 85.9391 1918.78 86.0943C1919.11 86.1719 1919.35 86.2307 1919.52 86.2701C1919.6 86.2898 1919.66 86.3046 1919.71 86.3145C1919.73 86.3195 1919.74 86.3232 1919.75 86.3257C1919.76 86.3269 1919.76 86.3278 1919.76 86.3285C1919.77 86.3288 1919.77 86.329 1919.77 86.3291C1919.77 86.3292 1919.77 86.3293 1919.77 86.3293C1919.77 86.3293 1919.77 86.3293 1919.77 86.3294V86.3294C1919.77 86.3294 1919.77 86.3294 1920 85.3567C1920.23 84.3841 1920.23 84.3841 1920.23 84.3841C1920.23 84.3841 1920.23 84.384 1920.23 84.384C1920.23 84.384 1920.23 84.384 1920.23 84.384C1920.23 84.384 1920.23 84.3839 1920.23 84.3838C1920.23 84.3837 1920.23 84.3834 1920.23 84.3831C1920.23 84.3825 1920.22 84.3815 1920.22 84.3803C1920.21 84.3778 1920.19 84.374 1920.17 84.369C1920.13 84.359 1920.06 84.3441 1919.98 84.3244C1919.82 84.2849 1919.57 84.2259 1919.24 84.1482C1918.58 83.9927 1917.61 83.762 1916.32 83.461L1915.87 85.408Z" fill="#CFCFCF" mask="url(#path-1-inside-1_92_4)"/>
</svg>
