<svg width="64" height="64" viewBox="0 0 64 64" fill="none" xmlns="http://www.w3.org/2000/svg">
<g clip-path="url(#clip0_117_29)">
<path d="M24.1774 21.8922C25.3119 23.4743 26.4641 25.0785 27.6274 26.6983C27.7714 26.623 27.8866 26.5964 27.9553 26.5232C32.5421 21.6573 38.3187 19.8825 44.8088 20.3057C47.0179 20.4497 49.1916 21.1898 51.3764 21.6839C51.8772 21.7969 52.3514 22.0163 52.8367 22.1913C55.5377 23.1663 55.5555 23.1574 55.9898 20.3123C56.28 20.2857 56.5969 20.2702 56.9115 20.2259C57.7336 20.1085 58.0416 20.3832 58.1036 21.2851C58.3873 25.5128 58.7662 29.734 59.1074 33.9462C57.3259 34.3473 57.2705 34.3207 56.6589 32.7009C55.3294 29.1822 53.4039 26.1665 49.8187 24.5312C42.8877 21.3715 34.9019 24.2232 31.607 31.0812C31.4474 31.4135 31.5117 32.0207 31.7222 32.3309C32.4889 33.4587 33.3553 34.5179 34.195 35.5926C36.125 38.0565 38.6776 39.3616 41.7753 39.6453C41.9216 39.6586 42.0678 39.6896 42.2096 39.7228C42.2783 39.7406 42.3404 39.7871 42.4755 39.8558V41.8234C42.1409 41.8234 41.7886 41.8234 41.4385 41.8234C38.2633 41.8234 35.088 41.7946 31.9128 41.8434C31.1084 41.8566 30.6586 41.5642 30.2066 40.9349C26.094 35.2092 21.9283 29.5212 17.8357 23.7823C17.2663 22.9846 16.6901 22.6611 15.7506 22.7674C15.0948 22.8406 14.4256 22.7807 13.6235 22.7807C13.6013 23.1729 13.5659 23.523 13.5659 23.8731C13.5614 27.4539 13.5526 31.0368 13.5725 34.6176C13.5769 35.3887 13.6523 36.1664 13.7586 36.9309C14.0002 38.6925 14.9042 39.53 16.6901 39.6342C17.5344 39.6829 18.3852 39.6431 19.3425 39.6431V41.7702H1V39.663C1.74451 39.663 2.50453 39.6829 3.26456 39.6586C5.43605 39.5921 6.53288 38.5773 6.6769 36.4235C6.76997 35.0253 6.78548 33.6205 6.78326 32.2179C6.77218 23.5408 6.74559 14.8659 6.72122 6.18876C6.72122 5.82093 6.69242 5.45089 6.6481 5.08307C6.42652 3.23508 5.49809 2.31552 3.6346 2.17593C2.79259 2.11388 1.94393 2.16485 1.00886 2.16485V0.101927C1.1396 0.0731217 1.31243 0 1.48305 0C7.9798 0.0509636 14.4788 0.0509636 20.9733 0.201639C22.7216 0.243739 24.5253 0.542873 26.1871 1.08575C30.3883 2.45733 33.0982 5.3401 33.6788 9.80053C34.277 14.3917 32.203 18.081 28.024 20.268C26.8275 20.8951 25.529 21.3272 24.1774 21.89V21.8922ZM13.6257 19.8315C16.7034 19.9622 19.5685 19.6476 22.1831 18.1342C25.0017 16.5034 26.402 13.5386 25.9013 10.124C25.416 6.82469 23.5747 4.62883 20.3396 3.66273C18.1038 2.99578 15.8969 3.38354 13.6279 3.80455V19.8315H13.6257Z" fill="#009900"/>
<path d="M23.1229 34.5245C25.126 37.3009 27.1557 40.0596 29.1078 42.8715C29.4136 43.3124 29.4025 43.9905 29.4756 44.5688C29.9786 48.6392 31.2571 52.4106 33.8696 55.6257C38.5582 61.3935 45.5934 62.1357 51.7645 59.0735C52.0436 58.9339 52.3383 58.4819 52.3383 58.1717C52.3605 53.9262 52.3893 49.6807 52.294 45.4374C52.2386 42.9225 51.3745 42.1292 48.8684 41.8877C48.2901 41.8323 47.7073 41.8234 47.0736 41.7902V39.7295H63.7653V41.788C63.1183 41.819 62.4668 41.8345 61.8154 41.8877C60.6033 41.9852 59.7901 42.6034 59.604 43.8287C59.4289 44.992 59.2738 46.1686 59.2605 47.3408C59.2184 51.2539 59.2229 55.167 59.2605 59.0801C59.2672 59.8446 59.0323 60.2545 58.3388 60.6046C50.8493 64.3737 43.063 65.0429 35.1437 62.4216C25.5647 59.253 19.808 49.1799 21.6449 39.2376C21.9374 37.651 22.4028 36.0955 22.7883 34.5268C22.8991 34.5268 23.0121 34.5268 23.1229 34.5268V34.5245Z" fill="#009900"/>
</g>
<defs>
<clipPath id="clip0_117_29">
<rect width="64" height="64" fill="white"/>
</clipPath>
</defs>
</svg>
