<svg width="329" height="111" viewBox="0 0 329 111" fill="none" xmlns="http://www.w3.org/2000/svg">
<path d="M4.84012 12.45C5.89012 1.5 33.6401 -11.7 16.5401 25.65L15.3401 28.95C32.1401 30.15 26.1401 38.1 26.8901 62.85C26.8901 66 29.7401 121.8 10.0901 108C-0.559883 100.65 -5.20988 43.65 8.44012 38.25C9.64012 37.95 10.6901 38.55 10.9901 39.75C11.1401 40.65 10.8401 41.4 10.2401 42C-0.709884 55.65 4.84012 95.1 11.4401 103.5C23.4401 119.1 22.5401 63 22.5401 63C21.7901 35.1 28.2401 33.3 12.1901 33H11.7401C11.5901 33 11.2901 32.85 11.1401 32.7H10.9901V32.55H10.8401L10.6901 32.4L10.5401 32.25C10.2401 31.95 10.0901 31.65 10.0901 31.2V30.6L10.2401 30C27.9401 -13.35 9.19012 11.55 9.19012 12.3C9.19012 13.5 8.29012 14.4 7.09012 14.55C5.89012 14.55 4.84012 13.65 4.84012 12.45Z" fill="#643A18"/>
<path d="M48.9401 4.05C45.0401 15.45 60.6401 17.85 62.2901 39.45C63.0401 48.75 64.6901 98.55 58.0901 106.5C52.2401 113.4 40.6901 111.3 39.1901 97.2C37.9901 85.95 37.6901 71.4 37.8401 60.15C37.8401 58.95 38.7401 58.05 39.9401 58.05C41.1401 58.05 42.1901 58.95 42.1901 60.15C42.0401 61.5 38.4401 117.9 54.1901 104.25C60.3401 99 58.5401 46.65 58.0901 39.75C56.4401 18.6 39.7901 17.7 45.0401 2.25C45.4901 1.2 46.6901 0.750003 47.7401 1.2C48.9401 1.65 49.3901 3 48.9401 4.05Z" fill="#643A18"/>
<path d="M81.9402 54.3C84.0402 52.95 85.6902 52.8 88.2402 52.8C89.2902 52.95 90.1902 54 90.0402 55.05C90.0402 56.25 88.9902 57.15 87.7902 57C86.4402 57 85.5402 57 84.3402 57.75C78.0402 61.95 73.2402 112.5 87.4902 104.7C94.3902 101.1 92.1402 25.2 92.5902 11.4C92.8902 -0.450013 74.5902 4.19999 78.1902 36.6C78.4902 37.65 77.8902 38.85 76.6902 39.15C75.4902 39.45 74.4402 38.7 74.1402 37.65C69.3402 -3.90001 97.2402 -6.00001 96.7902 11.7C96.3402 27.45 98.8902 101.4 90.9402 107.55C69.4902 124.05 70.5402 61.8 81.9402 54.3Z" fill="#643A18"/>
<path d="M118.38 4.05C114.48 15.45 130.08 17.85 131.73 39.45C132.48 48.75 134.13 98.55 127.53 106.5C121.68 113.4 110.13 111.3 108.63 97.2C107.43 85.95 107.13 71.4 107.28 60.15C107.28 58.95 108.18 58.05 109.38 58.05C110.58 58.05 111.63 58.95 111.63 60.15C111.48 61.5 107.88 117.9 123.63 104.25C129.78 99 127.98 46.65 127.53 39.75C125.88 18.6 109.23 17.7 114.48 2.25C114.93 1.2 116.13 0.750003 117.18 1.2C118.38 1.65 118.83 3 118.38 4.05Z" fill="#643A18"/>
<path d="M172.23 108.3C172.08 109.5 170.88 110.25 169.83 110.1C168.63 109.95 167.88 108.75 168.03 107.7C169.98 90.9 172.08 58.5 167.43 42C164.73 45.6 163.08 58.35 162.03 69.9C162.93 79.65 162.78 88.65 160.38 92.1L157.53 92.25C157.23 91.8 157.08 91.05 156.93 89.85L156.78 90L156.93 89.55C156.63 86.4 156.78 80.85 157.23 74.55C157.08 61.2 155.43 44.7 150.93 40.95C148.68 43.95 147.48 55.8 146.73 68.85C147.18 87.6 148.98 104.1 145.98 108.45C144.03 111.3 142.83 110.1 142.08 106.65V106.35C141.03 100.35 141.48 87.9 142.38 75.75C141.63 46.5 141.63 13.35 166.08 1.19999C167.13 0.749995 168.33 1.34999 168.78 2.39999C169.23 3.44999 168.78 4.79999 167.58 5.24999C156.33 10.8 150.93 22.95 148.53 37.05C152.43 32.7 156.78 42.6 159.63 55.2C160.98 47.55 162.48 41.1 164.13 39.3C179.73 21.75 172.38 106.8 172.23 108.3Z" fill="#643A18"/>
<path d="M193.68 106.8C194.13 105.9 195.18 105.6 196.08 105.9C202.83 102.75 224.58 53.85 201.93 51.75C194.73 51 193.53 40.95 194.43 30L184.38 33.3C183.18 33.75 181.98 33.15 181.68 31.95C181.23 30.9 181.83 29.7 183.03 29.25L194.88 25.35C196.08 15.9 198.33 6.45001 198.93 2.40001C199.08 1.20001 200.13 0.450013 201.33 0.600013C202.53 0.750013 203.28 1.80001 203.13 3.00001C202.68 6.15001 201.03 14.7 199.98 23.7L207.93 21C208.98 20.7 210.18 21.3 210.63 22.35C210.93 23.55 210.33 24.75 209.28 25.05L199.53 28.35C198.78 36.45 198.78 44.1 200.43 47.55C234.63 49.8 204.63 114.9 194.28 109.65C193.38 109.05 192.93 107.85 193.68 106.8Z" fill="#643A18"/>
<path d="M225.78 108.15C225.93 90.9 222.63 14.55 231.78 4.49999C238.08 -2.55001 241.53 1.34999 243.33 9.29999C247.83 -2.40001 257.13 1.94999 258.33 9.44999C259.53 16.35 257.43 70.35 257.43 81V108.15C257.43 109.35 256.53 110.25 255.33 110.25C254.13 110.25 253.23 109.35 253.23 108.15C253.23 81.6 253.68 59.85 254.58 33.6C255.93 -6.15001 246.78 5.09999 245.43 19.65C245.43 20.25 245.13 20.7 244.83 21.15C245.73 36.3 244.23 54.45 244.23 54.45C244.23 55.65 243.18 56.55 242.13 56.55C240.93 56.55 239.88 55.65 240.03 54.45C240.03 53.4 243.78 -5.72205e-06 235.98 6.29999C226.83 13.65 230.13 93 229.98 108.15C229.98 109.35 229.08 110.25 227.88 110.25C226.68 110.25 225.78 109.35 225.78 108.15Z" fill="#643A18"/>
<path d="M273.93 109.05C265.23 105.9 266.13 53.4 273.33 37.65V37.35C273.33 36.3 274.23 35.25 275.43 35.25C276.63 35.25 277.53 36.3 277.53 37.35C277.68 37.95 277.68 38.4 277.38 39C270.03 53.7 271.68 102.75 275.28 105C292.08 115.95 289.83 55.2 289.83 55.05C289.23 30 292.38 27.3 279.33 29.4C278.28 29.55 277.08 28.8 276.93 27.75C276.78 27.3 276.93 26.7 277.23 26.4C277.23 25.8 277.38 25.2 277.83 24.9C278.43 22.5 283.53 15.9 285.78 12C279.18 11.55 273.18 13.2 272.28 2.70004C272.28 1.65004 273.18 0.600037 274.38 0.600037C275.58 0.600037 276.48 1.65004 276.48 2.70004C277.68 17.4 300.93 -4.94996 284.28 21.9C283.83 22.65 283.23 23.85 282.78 24.9C296.58 24 293.58 34.35 294.03 54.9C294.33 62.85 298.38 117.6 273.93 109.05Z" fill="#643A18"/>
<path d="M314.58 4.05C310.68 15.45 326.28 17.85 327.93 39.45C328.68 48.75 330.33 98.55 323.73 106.5C317.88 113.4 306.33 111.3 304.83 97.2C303.63 85.95 303.33 71.4 303.48 60.15C303.48 58.95 304.38 58.05 305.58 58.05C306.78 58.05 307.83 58.95 307.83 60.15C307.68 61.5 304.08 117.9 319.83 104.25C325.98 99 324.18 46.65 323.73 39.75C322.08 18.6 305.43 17.7 310.68 2.25C311.13 1.2 312.33 0.750003 313.38 1.2C314.58 1.65 315.03 3 314.58 4.05Z" fill="#643A18"/>
</svg>
