<svg width="192" height="111" viewBox="0 0 192 111" fill="none" xmlns="http://www.w3.org/2000/svg">
<path d="M26.6099 46.15L24.5099 46.75L21.0599 47.95L8.27987 52.31C8.71987 32.18 9.99988 13.04 13.2899 6.40004C15.1999 2.71004 11.1999 0.710035 9.08987 4.60004C5.68987 10.59 4.45986 31.77 4.07986 53.74L1.70986 54.55C0.509862 54.85 -0.0901445 56.05 0.359856 57.25C0.659856 58.3 1.85987 58.9 3.05987 58.6L4.00988 58.27C3.74988 79.28 4.15987 100.1 4.08987 108.24C4.08987 109.44 4.98987 110.34 6.18987 110.34C7.38987 110.34 8.28988 109.44 8.28988 108.24C8.36988 100.65 7.83987 78.67 8.18987 56.84L21.0499 52.45L24.4999 51.4L27.9499 50.2C28.9999 49.75 29.5999 48.55 29.2999 47.5C28.8499 46.3 27.6499 45.7 26.5999 46.15H26.6099Z" fill="#643A18"/>
<path d="M39.5999 4.60004C32.7099 16.71 34.7499 91 34.5999 108.25C34.5999 109.45 35.4999 110.35 36.6999 110.35C37.8999 110.35 38.7999 109.45 38.7999 108.25C38.9499 93.1 36.7099 20.71 43.7999 6.40004C45.7099 2.71004 41.7099 0.710035 39.5999 4.60004Z" fill="#643A18"/>
<path d="M189.4 15.85C187.45 1.90003 178.9 -5.29997 171.25 6.10003C166.64 12.98 165.15 33.71 164.77 55.1C164.82 69.15 165.32 82.79 166.84 94.35C168.79 108.3 177.34 115.5 184.99 104.1C189.6 97.22 191.09 76.49 191.47 55.1C191.42 41.05 190.92 27.41 189.4 15.85ZM175.47 102.91C170.57 97.4 169.29 76.68 168.92 55.11C169.28 33.54 170.85 12.82 175.75 7.31003C185.13 -3.45997 187.46 25.53 187.6 55.11C187.45 84.69 184.84 113.68 175.46 102.91H175.47Z" fill="#643A18"/>
<path d="M73.0599 6.45002L76.5099 5.40002L79.9599 4.20002C81.0099 3.75002 81.6099 2.55002 81.3099 1.50002C80.8599 0.300017 79.6599 -0.299983 78.6099 0.150017L76.5099 0.750017L73.0599 1.95002L65.7899 4.43002C65.6799 2.15002 62.7899 1.48002 61.0999 4.60002C60.8299 5.07002 60.5799 5.64002 60.3399 6.29002L53.7199 8.55002C52.5199 8.85002 51.9199 10.05 52.3699 11.25C52.6699 12.3 53.8699 12.9 55.0699 12.6L59.0299 11.25C57.3199 19.94 56.5199 34.41 56.1699 49.71L53.7199 50.55C52.5199 50.85 51.9199 52.05 52.3699 53.25C52.6699 54.3 53.8699 54.9 55.0699 54.6L56.0799 54.25C55.7899 71.22 55.9999 88.59 56.0799 99.74L53.7199 100.55C52.5199 100.85 51.9199 102.05 52.3699 103.25C52.6699 104.3 53.8699 104.9 55.0699 104.6L56.1099 104.24C56.1099 105.79 56.1099 107.13 56.1099 108.24C56.1099 109.44 57.0099 110.34 58.2099 110.34C59.4099 110.34 60.3099 109.44 60.3099 108.24C60.3199 106.87 60.3099 105.03 60.3099 102.81L73.0799 98.45L76.5299 97.4L79.9799 96.2C81.0299 95.75 81.6299 94.55 81.3299 93.5C80.8799 92.3 79.6799 91.7 78.6299 92.15L76.5299 92.75L73.0799 93.95L60.2699 98.32C60.1599 86.96 59.9399 69.57 60.2999 52.8L67.0899 50.45L70.5399 49.4L73.9899 48.2C75.0399 47.75 75.6399 46.55 75.3399 45.5C74.8899 44.3 73.6899 43.7 72.6399 44.15L70.5399 44.75L67.0899 45.95L60.4199 48.25C60.8699 32.17 61.9199 17.25 64.1799 9.50002L73.0999 6.45002H73.0599Z" fill="#643A18"/>
<path d="M117.45 91.92L115.35 92.52L111.9 93.72L99.09 98.09C98.84 72.99 98.09 18.39 104.14 6.16999C106.05 2.47999 102.05 0.479994 99.94 4.36999C93.88 15.02 94.73 73.79 94.92 99.52L92.56 100.33C91.36 100.63 90.76 101.83 91.21 103.03C91.51 104.08 92.71 104.68 93.91 104.38L94.95 104.02C94.95 105.57 94.95 106.91 94.95 108.02C94.95 109.22 95.8499 110.12 97.0499 110.12C98.2499 110.12 99.15 109.22 99.15 108.02C99.16 106.65 99.15 104.81 99.15 102.59L111.92 98.23L115.37 97.18L118.82 95.98C119.87 95.53 120.47 94.33 120.17 93.28C119.72 92.08 118.52 91.48 117.47 91.93L117.45 91.92Z" fill="#643A18"/>
<path d="M154.81 91.92L152.71 92.52L149.26 93.72L136.45 98.09C136.2 72.99 135.45 18.39 141.5 6.16999C143.41 2.47999 139.41 0.479994 137.3 4.36999C131.24 15.02 132.09 73.79 132.28 99.52L129.92 100.33C128.72 100.63 128.12 101.83 128.57 103.03C128.87 104.08 130.07 104.68 131.27 104.38L132.31 104.02C132.31 105.57 132.31 106.91 132.31 108.02C132.31 109.22 133.21 110.12 134.41 110.12C135.61 110.12 136.51 109.22 136.51 108.02C136.52 106.65 136.51 104.81 136.51 102.59L149.28 98.23L152.73 97.18L156.18 95.98C157.23 95.53 157.83 94.33 157.53 93.28C157.08 92.08 155.88 91.48 154.83 91.93L154.81 91.92Z" fill="#643A18"/>
</svg>
