<svg width="62" height="64" viewBox="0 0 62 64" fill="none" xmlns="http://www.w3.org/2000/svg">
<path opacity="0.2" fill-rule="evenodd" clip-rule="evenodd" d="M7.99797 38.9956C4.71115 29.3118 3.36188 17.069 13.6896 10.7014C23.4281 4.69713 27.8315 24.0238 36.5892 29.4597C44.4327 34.3282 59.0375 28.4035 56.221 37.1007C52.7831 47.7169 41.9998 57.0009 29.5702 57.4893C17.7331 57.9544 11.2247 48.5023 7.99797 38.9956Z" fill="white"/>
<path d="M25.738 28.1249C26.5984 29.9949 27.7713 31.7474 29.2567 33.2974C30.7421 34.8474 32.4216 36.0712 34.2136 36.969C34.3678 37.0463 34.4448 37.0849 34.5423 37.1145C34.8889 37.22 35.3145 37.1442 35.608 36.9249C35.6906 36.8632 35.7613 36.7895 35.9026 36.642C36.3347 36.1911 36.5508 35.9656 36.7681 35.8182C37.5876 35.2622 38.644 35.2622 39.4635 35.8182C39.6808 35.9656 39.8969 36.1911 40.3291 36.642L40.57 36.8934C41.2269 37.5789 41.5554 37.9217 41.7338 38.2898C42.0887 39.022 42.0887 39.8866 41.7338 40.6187C41.5554 40.9868 41.2269 41.3296 40.57 42.0151L40.3751 42.2184C39.7204 42.9016 39.393 43.2432 38.9479 43.5041C38.4541 43.7936 37.687 44.0017 37.1206 44C36.6101 43.9984 36.2612 43.8951 35.5634 43.6884C31.8136 42.5778 28.2751 40.4823 25.3231 37.402C22.3711 34.3216 20.3629 30.6293 19.2986 26.7164C19.1006 25.9883 19.0015 25.6243 19 25.0916C18.9983 24.5005 19.1978 23.7001 19.4752 23.1848C19.7252 22.7203 20.0526 22.3787 20.7073 21.6956L20.9022 21.4922C21.5592 20.8067 21.8876 20.4639 22.2404 20.2777C22.942 19.9074 23.7706 19.9074 24.4722 20.2777C24.825 20.4639 25.1535 20.8067 25.8105 21.4922L26.0514 21.7436C26.4836 22.1946 26.6996 22.4201 26.8409 22.6468C27.3737 23.5019 27.3737 24.6042 26.8409 25.4593C26.6996 25.6861 26.4836 25.9116 26.0514 26.3625C25.9101 26.51 25.8394 26.5837 25.7803 26.6699C25.5701 26.9762 25.4975 27.4203 25.5986 27.7819C25.627 27.8837 25.664 27.9641 25.738 28.1249Z" stroke="white" stroke-width="2" stroke-linecap="round" stroke-linejoin="round"/>
</svg>
