<svg width="62" height="64" viewBox="0 0 62 64" fill="none" xmlns="http://www.w3.org/2000/svg">
<path opacity="0.2" fill-rule="evenodd" clip-rule="evenodd" d="M7.99797 38.9956C4.71115 29.3118 3.36188 17.069 13.6896 10.7014C23.4281 4.69713 27.8315 24.0238 36.5892 29.4597C44.4327 34.3282 59.0375 28.4035 56.221 37.1007C52.7831 47.7169 41.9998 57.0009 29.5702 57.4893C17.7331 57.9544 11.2247 48.5023 7.99797 38.9956Z" fill="white"/>
<path d="M18 26.75L28.2061 33.8943C29.0326 34.4728 29.4458 34.7621 29.8953 34.8741C30.2924 34.9731 30.7076 34.9731 31.1047 34.8741C31.5542 34.7621 31.9674 34.4728 32.7938 33.8943L43 26.75M24 43H37C39.1002 43 40.1503 43 40.9525 42.5913C41.6581 42.2317 42.2317 41.6581 42.5913 40.9525C43 40.1503 43 39.1002 43 37V29C43 26.8998 43 25.8497 42.5913 25.0475C42.2317 24.3419 41.6581 23.7683 40.9525 23.4087C40.1503 23 39.1002 23 37 23H24C21.8998 23 20.8497 23 20.0475 23.4087C19.3419 23.7683 18.7683 24.3419 18.4087 25.0475C18 25.8497 18 26.8998 18 29V37C18 39.1002 18 40.1503 18.4087 40.9525C18.7683 41.6581 19.3419 42.2317 20.0475 42.5913C20.8497 43 21.8998 43 24 43Z" stroke="white" stroke-width="2" stroke-linecap="round" stroke-linejoin="round"/>
</svg>
