<svg width="62" height="64" viewBox="0 0 62 64" fill="none" xmlns="http://www.w3.org/2000/svg">
<path opacity="0.2" fill-rule="evenodd" clip-rule="evenodd" d="M7.99797 38.9956C4.71115 29.3118 3.36188 17.069 13.6896 10.7014C23.4281 4.69713 27.8315 24.0238 36.5892 29.4597C44.4327 34.3282 59.0375 28.4035 56.221 37.1007C52.7831 47.7169 41.9998 57.0009 29.5702 57.4893C17.7331 57.9544 11.2247 48.5023 7.99797 38.9956Z" fill="white"/>
<path d="M24.3732 43H19.3964V26.9768H24.3732V43ZM21.8821 24.7911C20.2911 24.7911 19 23.4732 19 21.8821C19 21.1178 19.3037 20.3847 19.8442 19.8442C20.3847 19.3037 21.1178 19 21.8821 19C22.6465 19 23.3796 19.3037 23.9201 19.8442C24.4606 20.3847 24.7643 21.1178 24.7643 21.8821C24.7643 23.4732 23.4732 24.7911 21.8821 24.7911ZM42.9946 43H38.0286V35.2C38.0286 33.3411 37.9911 30.9571 35.4411 30.9571C32.8536 30.9571 32.4571 32.9768 32.4571 35.0661V43H27.4857V26.9768H32.2589V29.1625H32.3286C32.9929 27.9036 34.6161 26.575 37.0375 26.575C42.0732 26.575 43 29.8911 43 34.1982V43H42.9946Z" fill="white"/>
</svg>
