<svg width="62" height="64" viewBox="0 0 62 64" fill="none" xmlns="http://www.w3.org/2000/svg">
<path opacity="0.2" fill-rule="evenodd" clip-rule="evenodd" d="M7.99797 38.9956C4.71115 29.3118 3.36188 17.069 13.6896 10.7014C23.4281 4.69713 27.8315 24.0238 36.5892 29.4597C44.4327 34.3282 59.0375 28.4035 56.221 37.1007C52.7831 47.7169 41.9998 57.0009 29.5702 57.4893C17.7331 57.9544 11.2247 48.5023 7.99797 38.9956Z" fill="white"/>
<path d="M31.0001 34.0032C33.4127 34.0032 35.3685 32.0475 35.3685 29.6349C35.3685 27.2224 33.4127 25.2666 31.0001 25.2666C28.5876 25.2666 26.6318 27.2224 26.6318 29.6349C26.6318 32.0475 28.5876 34.0032 31.0001 34.0032Z" stroke="white" stroke-width="2.5"/>
<path d="M19.2671 27.0866C22.0253 14.9618 39.9886 14.9758 42.7328 27.1007C44.3429 34.2132 39.9186 40.2336 36.0403 43.9579C33.2261 46.674 28.7738 46.674 25.9456 43.9579C22.0813 40.2336 17.657 34.1992 19.2671 27.0866Z" stroke="white" stroke-width="2"/>
</svg>
