<svg width="242" height="63" viewBox="0 0 242 63" fill="none" xmlns="http://www.w3.org/2000/svg">
<path d="M22.1197 21.8517C23.2024 23.3616 24.302 24.8927 25.4123 26.4385C25.5497 26.3666 25.6597 26.3412 25.7252 26.2714C30.1026 21.6276 35.6157 19.9337 41.8096 20.3376C43.9179 20.4751 45.9924 21.1814 48.0775 21.6529C48.5555 21.7608 49.008 21.9701 49.4711 22.1372C52.0489 23.0677 52.0658 23.0592 52.4803 20.344C52.7573 20.3186 53.0597 20.3038 53.36 20.2615C54.1446 20.1494 54.4385 20.4116 54.4977 21.2723C54.7684 25.3071 55.13 29.3356 55.4557 33.3557C53.7555 33.7384 53.7026 33.713 53.119 32.1672C51.8501 28.8091 50.0125 25.931 46.5909 24.3703C39.9761 21.3548 32.3548 24.0764 29.2102 30.6214C29.058 30.9386 29.1193 31.518 29.3202 31.814C30.0519 32.8904 30.8787 33.9012 31.6802 34.9269C33.5221 37.2784 35.9582 38.524 38.9146 38.7946C39.0541 38.8073 39.1937 38.8369 39.329 38.8687C39.3946 38.8856 39.4538 38.93 39.5828 38.9955V40.8734C39.2635 40.8734 38.9273 40.8734 38.5931 40.8734C35.5628 40.8734 32.5324 40.8459 29.5021 40.8924C28.7344 40.9051 28.3052 40.626 27.8738 40.0254C23.9489 34.561 19.9733 29.1326 16.0674 23.6556C15.524 22.8943 14.9741 22.5855 14.0775 22.687C13.4516 22.7568 12.8129 22.6997 12.0474 22.6997C12.0263 23.074 11.9924 23.4081 11.9924 23.7423C11.9882 27.1596 11.9797 30.5791 11.9988 33.9964C12.003 34.7323 12.0749 35.4746 12.1764 36.2041C12.4069 37.8853 13.2697 38.6847 14.9741 38.7841C15.7798 38.8306 16.5919 38.7925 17.5054 38.7925V40.8226H0V38.8116C0.710537 38.8116 1.43588 38.8306 2.16122 38.8073C4.23361 38.7439 5.28039 37.7754 5.41784 35.7199C5.50666 34.3855 5.52146 33.0448 5.51935 31.7062C5.50877 23.4251 5.4834 15.146 5.46014 6.8649C5.46014 6.51386 5.43264 6.16071 5.39035 5.80967C5.17888 4.04602 4.29283 3.16842 2.51437 3.03519C1.71079 2.97598 0.900859 3.02462 0.00845877 3.02462V1.05584C0.133226 1.02835 0.298172 0.958565 0.461003 0.958565C6.66128 1.0072 12.8637 1.0072 19.0618 1.151C20.7303 1.19118 22.4517 1.47666 24.0377 1.99476C28.0472 3.30376 30.6334 6.05497 31.1875 10.3118C31.7584 14.6935 29.7791 18.2145 25.7908 20.3017C24.6489 20.9001 23.4096 21.3125 22.1197 21.8496V21.8517ZM12.0495 19.8851C14.9868 20.0098 17.7211 19.7095 20.2165 18.2652C22.9063 16.7088 24.2428 13.8793 23.7649 10.6206C23.3018 7.47182 21.5445 5.37616 18.457 4.45415C16.3233 3.81763 14.2171 4.1877 12.0516 4.58949V19.8851H12.0495Z" fill="#009900"/>
<path d="M21.1132 33.9076C23.0248 36.5573 24.9619 39.1901 26.8249 41.8736C27.1168 42.2944 27.1062 42.9415 27.176 43.4935C27.656 47.3782 28.8762 50.9774 31.3694 54.0458C35.8441 59.5503 42.5583 60.2588 48.4477 57.3363C48.7141 57.203 48.9954 56.7716 48.9954 56.4756C49.0165 52.4238 49.044 48.3721 48.9531 44.3224C48.9002 41.9223 48.0755 41.1652 45.6838 40.9347C45.1318 40.8818 44.5757 40.8734 43.9709 40.8417V38.875H59.9009V40.8395C59.2834 40.8691 58.6616 40.8839 58.0399 40.9347C56.8832 41.0277 56.1071 41.6177 55.9295 42.7872C55.7624 43.8974 55.6144 45.0203 55.6017 46.139C55.5615 49.8735 55.5657 53.6081 55.6017 57.3426C55.608 58.0722 55.3839 58.4634 54.722 58.7975C47.5743 62.3946 40.1433 63.0332 32.5854 60.5316C23.4436 57.5075 17.9496 47.8942 19.7027 38.4055C19.9818 36.8914 20.4259 35.4069 20.7938 33.9097C20.8996 33.9097 21.0074 33.9097 21.1132 33.9097V33.9076Z" fill="#009900"/>
<path d="M66.6555 54.1014C66.4979 54.1014 66.3627 54.0338 66.2501 53.8986C66.16 53.741 66.1149 53.5833 66.1149 53.4256C66.16 53.0878 66.2501 52.9076 66.3852 52.8851C66.5204 52.84 66.7006 52.8175 66.9258 52.8175C67.5565 52.8175 67.9844 52.7161 68.2097 52.5134C68.4349 52.2882 68.5588 51.9954 68.5813 51.635C68.6264 51.2746 68.6489 50.9029 68.6489 50.52V42.783C68.6489 42.3776 68.6264 42.0059 68.5813 41.6681C68.5588 41.3077 68.4349 41.0261 68.2097 40.8234C67.9844 40.5982 67.5565 40.4856 66.9258 40.4856C66.7231 40.4856 66.5316 40.463 66.3514 40.418C66.1938 40.3504 66.1149 40.1477 66.1149 39.8098C66.1149 39.472 66.2951 39.2693 66.6555 39.2017C67.6916 39.044 68.48 38.8864 69.0205 38.7287C69.5836 38.571 70.0003 38.4359 70.2706 38.3232C70.5634 38.2106 70.8225 38.1431 71.0477 38.1205C71.2279 38.098 71.3743 38.1318 71.4869 38.2219C71.6221 38.312 71.6896 38.4922 71.6896 38.7625V40.891H71.791C72.2415 40.463 72.7032 40.0576 73.1762 39.6747C73.6492 39.2693 74.2011 38.9427 74.8318 38.6949C75.485 38.4246 76.2846 38.2895 77.2306 38.2895C78.7622 38.2895 79.9785 38.7512 80.8795 39.6747C81.7804 40.5982 82.2309 41.8145 82.2309 43.3236V50.52C82.2309 50.9029 82.2422 51.2746 82.2647 51.635C82.3097 51.9954 82.4449 52.2882 82.6701 52.5134C82.9179 52.7161 83.3571 52.8175 83.9878 52.8175C84.1905 52.8175 84.3594 52.84 84.4946 52.8851C84.6522 52.9076 84.7423 53.0878 84.7649 53.4256C84.7649 53.5833 84.7198 53.741 84.6297 53.8986C84.5396 54.0338 84.4045 54.1014 84.2243 54.1014C83.5711 54.0563 82.9629 54.0225 82.3998 54C81.8593 54 81.2849 54 80.6768 54C80.0686 54 79.4942 54 78.9537 54C78.4131 54.0225 77.8162 54.0563 77.163 54.1014C77.0053 54.1014 76.8702 54.0338 76.7576 53.8986C76.6675 53.741 76.6224 53.5833 76.6224 53.4256C76.6449 53.0878 76.7238 52.9076 76.8589 52.8851C77.0166 52.84 77.1968 52.8175 77.3995 52.8175C78.0302 52.8175 78.4581 52.7161 78.6834 52.5134C78.9311 52.2882 79.0663 51.9954 79.0888 51.635C79.1339 51.2746 79.1564 50.9029 79.1564 50.52V43.3574C79.1564 42.6141 78.9874 42.0059 78.6496 41.5329C78.3342 41.0599 77.9288 40.7108 77.4333 40.4856C76.9378 40.2603 76.431 40.1477 75.9129 40.1477C75.1471 40.1477 74.4714 40.2941 73.8857 40.5869C73.3001 40.8572 72.8271 41.1725 72.4667 41.5329C72.1063 41.8933 71.8586 42.2087 71.7234 42.4789V50.52C71.7234 50.9029 71.7347 51.2746 71.7572 51.635C71.8023 51.9954 71.9374 52.2882 72.1627 52.5134C72.4104 52.7161 72.8496 52.8175 73.4803 52.8175C73.683 52.8175 73.852 52.84 73.9871 52.8851C74.1448 52.9076 74.2349 53.0878 74.2574 53.4256C74.2574 53.5833 74.2123 53.741 74.1222 53.8986C74.0322 54.0338 73.897 54.1014 73.7168 54.1014C73.0636 54.0563 72.4555 54.0225 71.8924 54C71.3518 54 70.7774 54 70.1693 54C69.5611 54 68.9868 54 68.4462 54C67.9056 54.0225 67.3087 54.0563 66.6555 54.1014ZM93.1362 54.4054C91.6045 54.4054 90.3882 53.9437 89.4873 53.0202C88.5863 52.0967 88.1358 50.8804 88.1358 49.3713V43.1209C88.1358 42.7154 88.1133 42.3438 88.0683 42.0059C88.0457 41.6455 87.9218 41.364 87.6966 41.1613C87.4714 40.936 87.0434 40.8234 86.4127 40.8234C86.21 40.8234 86.0186 40.8009 85.8384 40.7558C85.6807 40.6883 85.6019 40.4856 85.6019 40.1477C85.6019 39.8098 85.7821 39.6071 86.1424 39.5395C87.1786 39.3819 87.9669 39.2242 88.5075 39.0665C89.0706 38.9089 89.4985 38.7737 89.7913 38.6611C90.0842 38.5485 90.3432 38.4809 90.5684 38.4584C90.7486 38.4359 90.895 38.4697 91.0076 38.5598C91.1428 38.6498 91.2104 38.83 91.2104 39.1003V49.3375C91.2104 50.0808 91.368 50.689 91.6834 51.162C92.0212 51.635 92.4379 51.9841 92.9334 52.2093C93.429 52.4346 93.9358 52.5472 94.4538 52.5472C95.2422 52.5472 95.9292 52.4121 96.5148 52.1418C97.1004 51.849 97.5734 51.5224 97.9338 51.162C98.2942 50.7791 98.5307 50.4637 98.6433 50.216V43.1209C98.6433 42.7154 98.6208 42.3438 98.5757 42.0059C98.5532 41.6455 98.4293 41.364 98.2041 41.1613C97.9788 40.936 97.5509 40.8234 96.9202 40.8234C96.7175 40.8234 96.526 40.8009 96.3458 40.7558C96.1882 40.6883 96.1093 40.4856 96.1093 40.1477C96.1093 39.8098 96.2895 39.6071 96.6499 39.5395C97.686 39.3819 98.4744 39.2242 99.0149 39.0665C99.578 38.9089 100.006 38.7737 100.299 38.6611C100.592 38.5485 100.851 38.4809 101.076 38.4584C101.256 38.4359 101.402 38.4697 101.515 38.5598C101.65 38.6498 101.718 38.83 101.718 39.1003V50.7903C101.718 52.1192 102.608 52.7837 104.387 52.7837C104.635 52.7837 104.792 52.8513 104.86 52.9864C104.928 53.1216 104.961 53.268 104.961 53.4256C104.961 53.741 104.77 53.9324 104.387 54L98.9474 54.3716C98.7897 54.3716 98.6996 54.3041 98.6771 54.1689C98.6546 54.0338 98.6433 53.8761 98.6433 53.6959V51.8039H98.5757C98.1478 52.2093 97.686 52.6148 97.1905 53.0202C96.7175 53.4256 96.1544 53.7522 95.5012 54C94.8705 54.2703 94.0822 54.4054 93.1362 54.4054ZM112.452 54.5744C111.776 54.5744 111.134 54.4054 110.526 54.0676C109.918 53.7297 109.411 53.2117 109.006 52.5134C108.623 51.8152 108.431 50.9367 108.431 49.8781V39.945L106.472 40.0126C106.314 40.0126 106.19 39.9562 106.1 39.8436C106.032 39.7085 105.999 39.5621 105.999 39.4044C105.999 38.9539 106.156 38.6949 106.472 38.6273C107.305 38.4697 107.936 38.2106 108.364 37.8502C108.792 37.4673 109.118 37.0169 109.343 36.4988C109.591 35.9807 109.816 35.4176 110.019 34.8095C110.087 34.6293 110.188 34.5167 110.323 34.4716C110.458 34.4041 110.605 34.3703 110.762 34.3703C110.898 34.3703 111.044 34.4041 111.202 34.4716C111.382 34.5392 111.472 34.6631 111.472 34.8433L111.235 38.6949L115.188 38.4584C115.391 38.4359 115.526 38.4922 115.594 38.6273C115.661 38.7625 115.695 38.9201 115.695 39.1003C115.695 39.3256 115.65 39.5508 115.56 39.7761C115.493 40.0013 115.402 40.1139 115.29 40.1139L111.506 40.0126V50.2835C111.506 50.9367 111.641 51.5336 111.911 52.0742C112.204 52.6148 112.722 52.8851 113.465 52.8851C113.713 52.8851 113.995 52.8625 114.31 52.8175C114.625 52.7724 114.963 52.6711 115.324 52.5134C115.414 52.4684 115.504 52.4346 115.594 52.4121C115.684 52.367 115.774 52.3445 115.864 52.3445C116.044 52.3445 116.18 52.4233 116.27 52.581C116.36 52.7161 116.439 52.8625 116.506 53.0202C116.574 53.2229 116.517 53.3806 116.337 53.4932C115.639 53.9437 114.997 54.2365 114.411 54.3716C113.826 54.5068 113.173 54.5744 112.452 54.5744ZM119.611 54.1014C119.454 54.1014 119.318 54.0338 119.206 53.8986C119.116 53.741 119.071 53.5833 119.071 53.4256C119.116 53.0878 119.206 52.9076 119.341 52.8851C119.476 52.84 119.656 52.8175 119.882 52.8175C120.512 52.8175 120.94 52.7161 121.165 52.5134C121.391 52.2882 121.515 51.9954 121.537 51.635C121.582 51.2746 121.605 50.9029 121.605 50.52V42.783C121.605 42.3776 121.582 42.0059 121.537 41.6681C121.515 41.3077 121.391 41.0261 121.165 40.8234C120.94 40.5982 120.512 40.4856 119.882 40.4856C119.679 40.4856 119.487 40.463 119.307 40.418C119.15 40.3504 119.071 40.1477 119.071 39.8098C119.071 39.472 119.251 39.2693 119.611 39.2017C120.647 39.044 121.436 38.8864 121.976 38.7287C122.539 38.571 122.956 38.4359 123.226 38.3232C123.519 38.2106 123.778 38.1431 124.003 38.1205C124.184 38.098 124.33 38.1318 124.443 38.2219C124.578 38.312 124.645 38.4922 124.645 38.7625V40.8572H124.747C125.513 40.1139 126.301 39.5058 127.112 39.0328C127.923 38.5372 128.666 38.2895 129.342 38.2895C130.13 38.2895 130.727 38.5823 131.132 39.1679C131.56 39.7535 131.774 40.3729 131.774 41.0261C131.774 41.5892 131.594 42.1411 131.234 42.6817C130.873 43.1997 130.333 43.4587 129.612 43.4587C129.252 43.4587 128.959 43.3912 128.734 43.256C128.531 43.0984 128.418 42.9857 128.396 42.9182C128.396 42.8731 128.497 42.738 128.7 42.5127C128.925 42.2875 129.038 42.0059 129.038 41.6681C129.038 41.2626 128.925 40.936 128.7 40.6883C128.497 40.4405 128.215 40.3166 127.855 40.3166C127.472 40.3166 126.977 40.5081 126.368 40.891C125.783 41.2739 125.22 41.7356 124.679 42.2762V50.52C124.679 50.9029 124.69 51.2746 124.713 51.635C124.758 51.9954 124.893 52.2882 125.118 52.5134C125.366 52.7161 125.805 52.8175 126.436 52.8175C126.639 52.8175 126.808 52.84 126.943 52.8851C127.101 52.9076 127.191 53.0878 127.213 53.4256C127.213 53.5833 127.168 53.741 127.078 53.8986C126.988 54.0338 126.853 54.1014 126.673 54.1014C126.019 54.0563 125.411 54.0225 124.848 54C124.308 54 123.733 54 123.125 54C122.517 54 121.943 54 121.402 54C120.861 54.0225 120.264 54.0563 119.611 54.1014ZM133.964 54.1014C133.806 54.1014 133.671 54.0338 133.558 53.8986C133.468 53.741 133.423 53.5833 133.423 53.4256C133.468 53.0878 133.558 52.9076 133.693 52.8851C133.829 52.84 134.009 52.8175 134.234 52.8175C134.865 52.8175 135.293 52.7161 135.518 52.5134C135.743 52.2882 135.867 51.9954 135.89 51.635C135.935 51.2746 135.957 50.9029 135.957 50.52V42.783C135.957 42.3776 135.935 42.0059 135.89 41.6681C135.867 41.3077 135.743 41.0261 135.518 40.8234C135.293 40.5982 134.865 40.4856 134.234 40.4856C134.031 40.4856 133.84 40.463 133.66 40.418C133.502 40.3504 133.423 40.1477 133.423 39.8098C133.423 39.472 133.603 39.2693 133.964 39.2017C135 39.044 135.788 38.8864 136.329 38.7287C136.892 38.571 137.32 38.4359 137.613 38.3232C137.905 38.2106 138.164 38.1431 138.39 38.1205C138.57 38.098 138.716 38.1318 138.829 38.2219C138.964 38.312 139.032 38.4922 139.032 38.7625V50.52C139.032 50.9029 139.043 51.2746 139.065 51.635C139.111 51.9954 139.246 52.2882 139.471 52.5134C139.719 52.7161 140.158 52.8175 140.789 52.8175C140.991 52.8175 141.16 52.84 141.295 52.8851C141.453 52.9076 141.543 53.0878 141.566 53.4256C141.566 53.5833 141.521 53.741 141.43 53.8986C141.34 54.0338 141.205 54.1014 141.025 54.1014C140.372 54.0563 139.764 54.0225 139.201 54C138.66 54 138.086 54 137.478 54C136.869 54 136.295 54 135.754 54C135.214 54.0225 134.617 54.0563 133.964 54.1014ZM137.309 34.3703C136.678 34.3703 136.149 34.1788 135.721 33.7959C135.293 33.3905 135.079 32.8949 135.079 32.3093C135.079 31.7913 135.338 31.3295 135.856 30.9241C136.374 30.5187 136.959 30.3159 137.613 30.3159C138.176 30.3159 138.638 30.5187 138.998 30.9241C139.358 31.307 139.538 31.8025 139.538 32.4107C139.538 32.9513 139.324 33.413 138.897 33.7959C138.469 34.1788 137.939 34.3703 137.309 34.3703ZM149.471 54.5744C148.796 54.5744 148.154 54.4054 147.546 54.0676C146.937 53.7297 146.431 53.2117 146.025 52.5134C145.642 51.8152 145.451 50.9367 145.451 49.8781V39.945L143.491 40.0126C143.334 40.0126 143.21 39.9562 143.12 39.8436C143.052 39.7085 143.018 39.5621 143.018 39.4044C143.018 38.9539 143.176 38.6949 143.491 38.6273C144.325 38.4697 144.955 38.2106 145.383 37.8502C145.811 37.4673 146.138 37.0169 146.363 36.4988C146.611 35.9807 146.836 35.4176 147.039 34.8095C147.106 34.6293 147.208 34.5167 147.343 34.4716C147.478 34.4041 147.624 34.3703 147.782 34.3703C147.917 34.3703 148.064 34.4041 148.221 34.4716C148.401 34.5392 148.492 34.6631 148.492 34.8433L148.255 38.6949L152.208 38.4584C152.411 38.4359 152.546 38.4922 152.613 38.6273C152.681 38.7625 152.715 38.9201 152.715 39.1003C152.715 39.3256 152.67 39.5508 152.58 39.7761C152.512 40.0013 152.422 40.1139 152.309 40.1139L148.525 40.0126V50.2835C148.525 50.9367 148.66 51.5336 148.931 52.0742C149.224 52.6148 149.742 52.8851 150.485 52.8851C150.733 52.8851 151.014 52.8625 151.33 52.8175C151.645 52.7724 151.983 52.6711 152.343 52.5134C152.433 52.4684 152.523 52.4346 152.613 52.4121C152.704 52.367 152.794 52.3445 152.884 52.3445C153.064 52.3445 153.199 52.4233 153.289 52.581C153.379 52.7161 153.458 52.8625 153.526 53.0202C153.593 53.2229 153.537 53.3806 153.357 53.4932C152.658 53.9437 152.017 54.2365 151.431 54.3716C150.845 54.5068 150.192 54.5744 149.471 54.5744ZM156.631 54.1014C156.473 54.1014 156.338 54.0338 156.225 53.8986C156.135 53.741 156.09 53.5833 156.09 53.4256C156.135 53.0878 156.225 52.9076 156.361 52.8851C156.496 52.84 156.676 52.8175 156.901 52.8175C157.532 52.8175 157.96 52.7161 158.185 52.5134C158.41 52.2882 158.534 51.9954 158.557 51.635C158.602 51.2746 158.624 50.9029 158.624 50.52V42.783C158.624 42.3776 158.602 42.0059 158.557 41.6681C158.534 41.3077 158.41 41.0261 158.185 40.8234C157.96 40.5982 157.532 40.4856 156.901 40.4856C156.698 40.4856 156.507 40.463 156.327 40.418C156.169 40.3504 156.09 40.1477 156.09 39.8098C156.09 39.472 156.27 39.2693 156.631 39.2017C157.667 39.044 158.455 38.8864 158.996 38.7287C159.559 38.571 159.987 38.4359 160.28 38.3232C160.573 38.2106 160.832 38.1431 161.057 38.1205C161.237 38.098 161.383 38.1318 161.496 38.2219C161.631 38.312 161.699 38.4922 161.699 38.7625V50.52C161.699 50.9029 161.71 51.2746 161.733 51.635C161.778 51.9954 161.913 52.2882 162.138 52.5134C162.386 52.7161 162.825 52.8175 163.456 52.8175C163.658 52.8175 163.827 52.84 163.962 52.8851C164.12 52.9076 164.21 53.0878 164.233 53.4256C164.233 53.5833 164.188 53.741 164.098 53.8986C164.007 54.0338 163.872 54.1014 163.692 54.1014C163.039 54.0563 162.431 54.0225 161.868 54C161.327 54 160.753 54 160.145 54C159.536 54 158.962 54 158.421 54C157.881 54.0225 157.284 54.0563 156.631 54.1014ZM159.976 34.3703C159.345 34.3703 158.816 34.1788 158.388 33.7959C157.96 33.3905 157.746 32.8949 157.746 32.3093C157.746 31.7913 158.005 31.3295 158.523 30.9241C159.041 30.5187 159.627 30.3159 160.28 30.3159C160.843 30.3159 161.305 30.5187 161.665 30.9241C162.025 31.307 162.206 31.8025 162.206 32.4107C162.206 32.9513 161.992 33.413 161.564 33.7959C161.136 34.1788 160.606 34.3703 159.976 34.3703ZM173.999 54.4054C172.422 54.4054 171.037 54.0338 169.843 53.2905C168.672 52.5472 167.76 51.5787 167.107 50.3849C166.453 49.1911 166.127 47.9185 166.127 46.5671C166.127 45.2381 166.363 44.0556 166.836 43.0195C167.309 41.9834 167.929 41.1162 168.695 40.418C169.483 39.7197 170.339 39.1904 171.262 38.83C172.186 38.4697 173.098 38.2895 173.999 38.2895C175.576 38.2895 176.95 38.6611 178.121 39.4044C179.315 40.1477 180.238 41.1162 180.891 42.31C181.545 43.5038 181.871 44.7764 181.871 46.1278C181.871 47.4568 181.623 48.6393 181.128 49.6754C180.655 50.7115 180.024 51.5787 179.236 52.2769C178.47 52.9752 177.625 53.5045 176.702 53.8649C175.778 54.2252 174.877 54.4054 173.999 54.4054ZM173.999 53.1553C175.103 53.1553 175.97 52.8287 176.6 52.1756C177.254 51.5224 177.715 50.6664 177.986 49.6078C178.279 48.5267 178.425 47.3667 178.425 46.1278C178.425 44.9341 178.279 43.8416 177.986 42.8506C177.693 41.8595 177.22 41.0599 176.567 40.4518C175.914 39.8436 175.058 39.5395 173.999 39.5395C172.895 39.5395 172.017 39.8661 171.364 40.5193C170.71 41.15 170.249 41.9947 169.978 43.0533C169.708 44.0894 169.573 45.2381 169.573 46.4995C169.573 47.6707 169.708 48.7632 169.978 49.7767C170.271 50.7903 170.744 51.6124 171.397 52.2431C172.051 52.8513 172.918 53.1553 173.999 53.1553ZM184.709 54.1014C184.551 54.1014 184.416 54.0338 184.303 53.8986C184.213 53.741 184.168 53.5833 184.168 53.4256C184.213 53.0878 184.303 52.9076 184.439 52.8851C184.574 52.84 184.754 52.8175 184.979 52.8175C185.61 52.8175 186.038 52.7161 186.263 52.5134C186.488 52.2882 186.612 51.9954 186.635 51.635C186.68 51.2746 186.702 50.9029 186.702 50.52V42.783C186.702 42.3776 186.68 42.0059 186.635 41.6681C186.612 41.3077 186.488 41.0261 186.263 40.8234C186.038 40.5982 185.61 40.4856 184.979 40.4856C184.776 40.4856 184.585 40.463 184.405 40.418C184.247 40.3504 184.168 40.1477 184.168 39.8098C184.168 39.472 184.349 39.2693 184.709 39.2017C185.745 39.044 186.533 38.8864 187.074 38.7287C187.637 38.571 188.054 38.4359 188.324 38.3232C188.617 38.2106 188.876 38.1431 189.101 38.1205C189.281 38.098 189.428 38.1318 189.54 38.2219C189.675 38.312 189.743 38.4922 189.743 38.7625V40.891H189.844C190.295 40.463 190.757 40.0576 191.23 39.6747C191.703 39.2693 192.254 38.9427 192.885 38.6949C193.538 38.4246 194.338 38.2895 195.284 38.2895C196.816 38.2895 198.032 38.7512 198.933 39.6747C199.834 40.5982 200.284 41.8145 200.284 43.3236V50.52C200.284 50.9029 200.296 51.2746 200.318 51.635C200.363 51.9954 200.498 52.2882 200.724 52.5134C200.971 52.7161 201.41 52.8175 202.041 52.8175C202.244 52.8175 202.413 52.84 202.548 52.8851C202.706 52.9076 202.796 53.0878 202.818 53.4256C202.818 53.5833 202.773 53.741 202.683 53.8986C202.593 54.0338 202.458 54.1014 202.278 54.1014C201.624 54.0563 201.016 54.0225 200.453 54C199.913 54 199.338 54 198.73 54C198.122 54 197.548 54 197.007 54C196.466 54.0225 195.87 54.0563 195.216 54.1014C195.059 54.1014 194.924 54.0338 194.811 53.8986C194.721 53.741 194.676 53.5833 194.676 53.4256C194.698 53.0878 194.777 52.9076 194.912 52.8851C195.07 52.84 195.25 52.8175 195.453 52.8175C196.084 52.8175 196.512 52.7161 196.737 52.5134C196.985 52.2882 197.12 51.9954 197.142 51.635C197.187 51.2746 197.21 50.9029 197.21 50.52V43.3574C197.21 42.6141 197.041 42.0059 196.703 41.5329C196.388 41.0599 195.982 40.7108 195.487 40.4856C194.991 40.2603 194.484 40.1477 193.966 40.1477C193.2 40.1477 192.525 40.2941 191.939 40.5869C191.353 40.8572 190.88 41.1725 190.52 41.5329C190.16 41.8933 189.912 42.2087 189.777 42.4789V50.52C189.777 50.9029 189.788 51.2746 189.811 51.635C189.856 51.9954 189.991 52.2882 190.216 52.5134C190.464 52.7161 190.903 52.8175 191.534 52.8175C191.736 52.8175 191.905 52.84 192.04 52.8851C192.198 52.9076 192.288 53.0878 192.311 53.4256C192.311 53.5833 192.266 53.741 192.176 53.8986C192.086 54.0338 191.95 54.1014 191.77 54.1014C191.117 54.0563 190.509 54.0225 189.946 54C189.405 54 188.831 54 188.223 54C187.614 54 187.04 54 186.5 54C185.959 54.0225 185.362 54.0563 184.709 54.1014ZM204.934 54.1014C204.777 54.1014 204.642 54.0338 204.529 53.8986C204.439 53.741 204.394 53.5833 204.394 53.4256C204.439 53.0878 204.529 52.9076 204.664 52.8851C204.799 52.84 204.979 52.8175 205.205 52.8175C205.835 52.8175 206.263 52.7161 206.489 52.5134C206.714 52.2882 206.838 51.9954 206.86 51.635C206.905 51.2746 206.928 50.9029 206.928 50.52V42.783C206.928 42.3776 206.905 42.0059 206.86 41.6681C206.838 41.3077 206.714 41.0261 206.489 40.8234C206.263 40.5982 205.835 40.4856 205.205 40.4856C205.002 40.4856 204.81 40.463 204.63 40.418C204.473 40.3504 204.394 40.1477 204.394 39.8098C204.394 39.472 204.574 39.2693 204.934 39.2017C205.97 39.044 206.759 38.8864 207.299 38.7287C207.862 38.571 208.29 38.4359 208.583 38.3232C208.876 38.2106 209.135 38.1431 209.36 38.1205C209.541 38.098 209.687 38.1318 209.8 38.2219C209.935 38.312 210.002 38.4922 210.002 38.7625V50.52C210.002 50.9029 210.014 51.2746 210.036 51.635C210.081 51.9954 210.216 52.2882 210.441 52.5134C210.689 52.7161 211.128 52.8175 211.759 52.8175C211.962 52.8175 212.131 52.84 212.266 52.8851C212.424 52.9076 212.514 53.0878 212.536 53.4256C212.536 53.5833 212.491 53.741 212.401 53.8986C212.311 54.0338 212.176 54.1014 211.996 54.1014C211.342 54.0563 210.734 54.0225 210.171 54C209.631 54 209.056 54 208.448 54C207.84 54 207.266 54 206.725 54C206.184 54.0225 205.588 54.0563 204.934 54.1014ZM208.279 34.3703C207.649 34.3703 207.119 34.1788 206.691 33.7959C206.263 33.3905 206.049 32.8949 206.049 32.3093C206.049 31.7913 206.308 31.3295 206.826 30.9241C207.344 30.5187 207.93 30.3159 208.583 30.3159C209.146 30.3159 209.608 30.5187 209.968 30.9241C210.329 31.307 210.509 31.8025 210.509 32.4107C210.509 32.9513 210.295 33.413 209.867 33.7959C209.439 34.1788 208.91 34.3703 208.279 34.3703ZM220.641 54.4054C218.907 54.4054 217.454 54.1014 216.283 53.4932C215.134 52.8625 214.56 51.9616 214.56 50.7903C214.56 50.1371 214.751 49.6078 215.134 49.2024C215.54 48.7969 216.058 48.5942 216.688 48.5942C217.094 48.5942 217.421 48.7068 217.668 48.9321C217.939 49.1348 218.074 49.2812 218.074 49.3713C218.074 49.4389 217.939 49.5965 217.668 49.8443C217.421 50.0696 217.297 50.4412 217.297 50.9593C217.297 51.5899 217.589 52.1192 218.175 52.5472C218.783 52.9526 219.695 53.1553 220.912 53.1553C221.97 53.1553 222.793 52.9301 223.378 52.4796C223.986 52.0066 224.29 51.3534 224.29 50.52C224.29 49.8443 224.065 49.3263 223.615 48.9659C223.187 48.583 222.624 48.2789 221.925 48.0536C221.25 47.8284 220.518 47.6032 219.729 47.3779C218.963 47.1527 218.231 46.8711 217.533 46.5333C216.835 46.1954 216.261 45.7337 215.81 45.148C215.382 44.5399 215.168 43.7403 215.168 42.7492C215.168 41.7356 215.472 40.9023 216.08 40.2491C216.688 39.5959 217.466 39.1116 218.412 38.7963C219.358 38.4584 220.315 38.2895 221.283 38.2895C222.117 38.2895 222.905 38.4133 223.648 38.6611C224.392 38.8864 225 39.2355 225.473 39.7085C225.968 40.1815 226.216 40.7784 226.216 41.4991C226.216 42.0622 226.036 42.569 225.676 43.0195C225.315 43.47 224.82 43.6952 224.189 43.6952C223.784 43.6952 223.446 43.5939 223.175 43.3912C222.928 43.1659 222.804 43.0083 222.804 42.9182C222.804 42.8731 222.883 42.7943 223.04 42.6817C223.22 42.5465 223.389 42.3776 223.547 42.1749C223.705 41.9496 223.784 41.6681 223.784 41.3302C223.739 40.677 223.423 40.1927 222.838 39.8774C222.252 39.5621 221.599 39.4044 220.878 39.4044C220.09 39.4044 219.358 39.5959 218.682 39.9788C218.006 40.3617 217.668 40.9135 217.668 41.6343C217.668 42.2875 217.803 42.7943 218.074 43.1547C218.367 43.515 218.817 43.8304 219.425 44.1007C220.056 44.3484 220.867 44.63 221.858 44.9453C222.849 45.2607 223.716 45.5873 224.459 45.9251C225.225 46.263 225.811 46.7135 226.216 47.2766C226.644 47.8171 226.858 48.5604 226.858 49.5064C226.858 50.4525 226.588 51.2971 226.047 52.0404C225.507 52.7837 224.763 53.3693 223.817 53.7973C222.894 54.2027 221.835 54.4054 220.641 54.4054ZM235.553 54.5744C234.878 54.5744 234.236 54.4054 233.627 54.0676C233.019 53.7297 232.513 53.2117 232.107 52.5134C231.724 51.8152 231.533 50.9367 231.533 49.8781V39.945L229.573 40.0126C229.415 40.0126 229.292 39.9562 229.201 39.8436C229.134 39.7085 229.1 39.5621 229.1 39.4044C229.1 38.9539 229.258 38.6949 229.573 38.6273C230.407 38.4697 231.037 38.2106 231.465 37.8502C231.893 37.4673 232.22 37.0169 232.445 36.4988C232.693 35.9807 232.918 35.4176 233.121 34.8095C233.188 34.6293 233.29 34.5167 233.425 34.4716C233.56 34.4041 233.706 34.3703 233.864 34.3703C233.999 34.3703 234.146 34.4041 234.303 34.4716C234.483 34.5392 234.573 34.6631 234.573 34.8433L234.337 38.6949L238.29 38.4584C238.493 38.4359 238.628 38.4922 238.695 38.6273C238.763 38.7625 238.797 38.9201 238.797 39.1003C238.797 39.3256 238.752 39.5508 238.662 39.7761C238.594 40.0013 238.504 40.1139 238.391 40.1139L234.607 40.0126V50.2835C234.607 50.9367 234.742 51.5336 235.013 52.0742C235.306 52.6148 235.824 52.8851 236.567 52.8851C236.815 52.8851 237.096 52.8625 237.412 52.8175C237.727 52.7724 238.065 52.6711 238.425 52.5134C238.515 52.4684 238.605 52.4346 238.695 52.4121C238.785 52.367 238.876 52.3445 238.966 52.3445C239.146 52.3445 239.281 52.4233 239.371 52.581C239.461 52.7161 239.54 52.8625 239.608 53.0202C239.675 53.2229 239.619 53.3806 239.439 53.4932C238.74 53.9437 238.098 54.2365 237.513 54.3716C236.927 54.5068 236.274 54.5744 235.553 54.5744Z" fill="#4C524C"/>
</svg>
