<svg width="101" height="72" viewBox="0 0 101 72" fill="none" xmlns="http://www.w3.org/2000/svg">
<path d="M13.4286 28.8V29.8H14.4286H28.8571C36.265 29.8 42.2857 35.8117 42.2857 43.2V57.6C42.2857 64.9883 36.265 71 28.8571 71H14.4286C7.02073 71 1 64.9883 1 57.6V50.4V43.2V27C1 12.6367 12.6569 1 27.0536 1H28.8571C32.2971 1 35.0714 3.77165 35.0714 7.2C35.0714 10.6283 32.2971 13.4 28.8571 13.4H27.0536C19.5369 13.4 13.4286 19.4933 13.4286 27V28.8ZM71.1429 28.8V29.8H72.1429H86.5714C93.9793 29.8 100 35.8117 100 43.2V57.6C100 64.9883 93.9793 71 86.5714 71H72.1429C64.735 71 58.7143 64.9883 58.7143 57.6V50.4V43.2V27C58.7143 12.6367 70.3712 1 84.7679 1H86.5714C90.0114 1 92.7857 3.77165 92.7857 7.2C92.7857 10.6283 90.0114 13.4 86.5714 13.4H84.7679C77.2512 13.4 71.1429 19.4933 71.1429 27V28.8Z" stroke="#667085" stroke-width="2"/>
</svg>
