<svg width="860" height="377" viewBox="0 0 860 377" fill="none" xmlns="http://www.w3.org/2000/svg">
<path d="M859.306 157.291C859.615 159.86 859.821 162.503 859.924 165.222L859.424 165.241C859.475 166.577 859.5 167.931 859.5 169.305C859.5 170.635 859.473 171.962 859.42 173.285L859.92 173.305C859.813 175.967 859.599 178.616 859.282 181.252L858.785 181.192C858.468 183.819 858.047 186.432 857.524 189.032L858.014 189.131C857.491 191.727 856.867 194.309 856.143 196.877L855.661 196.741C854.947 199.274 854.135 201.792 853.227 204.296L853.697 204.467C852.795 206.954 851.799 209.427 850.711 211.884L850.253 211.682C849.192 214.078 848.041 216.46 846.805 218.826L847.248 219.058C846.03 221.387 844.729 223.701 843.345 225.999L842.917 225.741C841.561 227.993 840.127 230.229 838.614 232.449L839.028 232.731C837.546 234.906 835.991 237.065 834.362 239.208L833.964 238.905C832.383 240.986 830.733 243.051 829.015 245.101L829.399 245.422C827.704 247.445 825.943 249.452 824.118 251.443L823.75 251.105C821.98 253.036 820.15 254.951 818.261 256.851L818.615 257.204C816.763 259.065 814.855 260.912 812.89 262.743L812.549 262.377C810.616 264.178 808.629 265.965 806.588 267.736L806.916 268.114C804.942 269.826 802.919 271.525 800.847 273.208L800.532 272.82C798.484 274.483 796.389 276.132 794.247 277.766L794.55 278.164C792.462 279.756 790.33 281.334 788.154 282.897L787.862 282.491C785.725 284.027 783.546 285.548 781.324 287.056L781.605 287.469C779.423 288.95 777.202 290.416 774.941 291.869L774.67 291.448C772.459 292.868 770.211 294.275 767.925 295.667L768.185 296.094C765.928 297.47 763.634 298.832 761.305 300.18L761.055 299.747C758.781 301.063 756.475 302.366 754.135 303.654L754.376 304.092C752.057 305.37 749.706 306.633 747.323 307.884L747.091 307.441C744.764 308.662 742.407 309.869 740.02 311.064L740.243 311.511C737.876 312.696 735.478 313.868 733.053 315.026L732.837 314.575C730.463 315.709 728.061 316.83 725.631 317.938L725.839 318.393C723.432 319.492 720.998 320.577 718.538 321.649L718.338 321.191C715.921 322.245 713.478 323.287 711.01 324.315L711.203 324.777C708.764 325.794 706.301 326.798 703.814 327.789L703.629 327.325C701.172 328.305 698.691 329.272 696.188 330.227L696.366 330.694C693.902 331.634 691.416 332.562 688.909 333.477L688.737 333.007C686.243 333.918 683.727 334.816 681.19 335.702L681.355 336.174C678.871 337.041 676.367 337.896 673.843 338.74L673.684 338.265C671.162 339.108 668.621 339.938 666.06 340.756L666.213 341.232C663.705 342.033 661.179 342.823 658.635 343.6L658.488 343.122C655.954 343.896 653.401 344.659 650.831 345.409L650.971 345.889C648.431 346.631 645.873 347.361 643.299 348.078L643.165 347.597C640.62 348.306 638.06 349.004 635.483 349.69L635.611 350.173C633.04 350.858 630.452 351.531 627.849 352.192L627.726 351.707C625.175 352.355 622.608 352.991 620.026 353.616L620.143 354.102C617.56 354.727 614.962 355.341 612.349 355.942L612.237 355.455C609.662 356.048 607.074 356.63 604.471 357.199L604.578 357.688C601.992 358.254 599.391 358.809 596.778 359.353L596.676 358.863C594.073 359.405 591.457 359.934 588.828 360.452L588.924 360.943C586.336 361.453 583.735 361.952 581.122 362.439L581.03 361.948C578.419 362.435 575.795 362.911 573.159 363.375L573.246 363.868C570.639 364.327 568.02 364.775 565.389 365.212L565.307 364.718C562.697 365.152 560.075 365.574 557.443 365.984L557.52 366.478C554.886 366.889 552.242 367.289 549.586 367.677L549.514 367.182C546.905 367.563 544.286 367.934 541.658 368.292L541.725 368.788C539.095 369.147 536.454 369.495 533.803 369.832L533.74 369.336C531.107 369.67 528.464 369.994 525.811 370.306L525.869 370.802C523.243 371.111 520.607 371.409 517.962 371.696L517.908 371.199C515.264 371.485 512.612 371.761 509.95 372.025L510 372.522C507.364 372.784 504.72 373.034 502.067 373.274L502.022 372.776C499.384 373.014 496.738 373.241 494.083 373.457L494.124 373.955C491.468 374.171 488.804 374.376 486.132 374.569L486.096 374.071C483.461 374.261 480.819 374.441 478.169 374.61L478.201 375.109C475.552 375.278 472.896 375.436 470.232 375.582L470.205 375.083C467.548 375.229 464.885 375.364 462.214 375.488L462.237 375.988C459.595 376.11 456.947 376.222 454.291 376.322L454.272 375.823C451.619 375.923 448.958 376.013 446.291 376.091L446.306 376.591C443.649 376.669 440.986 376.736 438.317 376.792L438.306 376.292C435.66 376.347 433.009 376.391 430.351 376.425L430.357 376.925C427.698 376.958 425.033 376.98 422.362 376.992L422.36 376.492C421.025 376.497 419.689 376.5 418.352 376.5C416.998 376.5 415.647 376.497 414.3 376.491L414.297 376.991C411.6 376.979 408.915 376.956 406.242 376.921L406.249 376.421C403.577 376.386 400.917 376.339 398.27 376.28L398.259 376.78C395.564 376.721 392.881 376.65 390.211 376.566L390.226 376.067C387.537 375.983 384.86 375.887 382.196 375.78L382.175 376.279C379.51 376.172 376.857 376.052 374.216 375.921L374.241 375.421C371.539 375.287 368.85 375.14 366.175 374.981L366.145 375.48C363.464 375.321 360.797 375.149 358.143 374.965L358.177 374.467C355.507 374.282 352.85 374.085 350.207 373.875L350.168 374.374C347.473 374.16 344.793 373.934 342.127 373.696L342.172 373.198C339.507 372.959 336.857 372.708 334.222 372.445L334.172 372.943C331.49 372.675 328.822 372.394 326.169 372.101L326.224 371.604C323.55 371.308 320.891 371 318.247 370.678L318.187 371.175C315.533 370.852 312.895 370.517 310.272 370.169L310.338 369.673C307.656 369.318 304.99 368.949 302.34 368.567L302.269 369.062C299.617 368.679 296.982 368.284 294.362 367.876L294.439 367.382C291.778 366.967 289.133 366.539 286.504 366.097L286.421 366.59C283.766 366.144 281.129 365.685 278.508 365.212L278.597 364.72C275.962 364.245 273.345 363.757 270.745 363.255L270.65 363.746C267.995 363.233 265.358 362.707 262.739 362.167L262.84 361.678C260.223 361.138 257.624 360.585 255.044 360.018L254.937 360.507C252.293 359.926 249.669 359.332 247.064 358.724L247.177 358.237C244.566 357.627 241.974 357.003 239.401 356.366L239.281 356.851C236.665 356.203 234.069 355.541 231.493 354.864L231.62 354.381C229.018 353.697 226.436 353 223.875 352.288L223.741 352.77C221.153 352.051 218.586 351.317 216.039 350.569L216.18 350.09C213.592 349.329 211.026 348.555 208.481 347.766L208.333 348.243C205.773 347.449 203.235 346.641 200.719 345.818L200.875 345.343C198.306 344.503 195.76 343.648 193.237 342.778L193.074 343.251C190.544 342.378 188.037 341.491 185.553 340.589L185.724 340.119C183.179 339.195 180.66 338.256 178.165 337.302L177.986 337.769C175.487 336.814 173.013 335.843 170.564 334.858L170.75 334.394C168.237 333.383 165.751 332.357 163.29 331.315L163.095 331.775C160.63 330.732 158.192 329.673 155.78 328.6L155.984 328.143C153.509 327.041 151.063 325.924 148.644 324.792L148.432 325.245C146.006 324.108 143.607 322.956 141.237 321.789L141.458 321.34C139.03 320.145 136.632 318.934 134.264 317.707L134.034 318.151C131.651 316.916 129.297 315.665 126.974 314.399L127.214 313.96C124.842 312.667 122.502 311.358 120.194 310.034L119.945 310.468C117.611 309.128 115.31 307.773 113.041 306.403L113.299 305.975C110.994 304.582 108.722 303.172 106.483 301.747L106.215 302.169C103.939 300.72 101.698 299.255 99.4921 297.774L99.7708 297.359C97.5421 295.862 95.3495 294.35 93.193 292.822L92.9039 293.23C90.6958 291.665 88.5256 290.084 86.3932 288.487L86.6929 288.087C84.5469 286.48 82.4394 284.857 80.3706 283.218L80.0601 283.61C77.9392 281.929 75.8589 280.233 73.8193 278.52L74.1408 278.137C72.0798 276.407 70.0606 274.661 68.0833 272.898L67.7507 273.272C65.7425 271.482 63.7775 269.676 61.8557 267.855L62.1996 267.492C60.2396 265.634 58.3249 263.76 56.4555 261.871L56.1 262.223C54.2069 260.31 52.3602 258.38 50.5601 256.436L50.927 256.096C49.0997 254.122 47.3206 252.133 45.5899 250.128L45.2114 250.455C43.4462 248.41 41.7311 246.35 40.0664 244.274L40.4565 243.962C38.7768 241.867 37.1487 239.758 35.5723 237.634L35.1708 237.932C33.5651 235.769 32.0129 233.591 30.5145 231.398L30.9273 231.116C29.4083 228.893 27.9448 226.656 26.537 224.405L26.113 224.67C24.6863 222.389 23.3166 220.093 22.0042 217.784L22.4389 217.537C21.1145 215.207 19.8487 212.863 18.6416 210.507L18.1966 210.735C16.9674 208.335 15.799 205.922 14.6916 203.497L15.1464 203.289C14.0326 200.85 12.9807 198.398 11.9911 195.935L11.5272 196.121C10.5265 193.63 9.58923 191.127 8.71577 188.613L9.18807 188.449C8.3093 185.92 7.49531 183.379 6.74642 180.829L6.26667 180.97C5.51012 178.394 4.81978 175.807 4.19597 173.211L4.68213 173.094C4.37079 171.799 4.07608 170.501 3.79804 169.2C3.51176 167.862 3.24394 166.527 2.99465 165.195L2.50319 165.287C2.00152 162.608 1.57462 159.944 1.22305 157.297L1.7187 157.231C1.35966 154.527 1.07952 151.84 0.878846 149.173L0.380255 149.21C0.175133 146.484 0.0527308 143.777 0.0137081 141.09L0.513655 141.083C0.474208 138.368 0.520298 135.675 0.652578 133.005L0.153191 132.98C0.287814 130.263 0.511362 127.57 0.824552 124.903L1.32114 124.961C1.63711 122.27 2.04469 119.606 2.54459 116.97L2.05335 116.877C2.55948 114.208 3.15988 111.568 3.8553 108.959L4.33844 109.088C5.03267 106.483 5.822 103.909 6.7072 101.368L6.23502 101.204C7.12392 98.6516 8.10907 96.1325 9.19124 93.6479L9.64964 93.8476C10.7226 91.3842 11.8914 88.9549 13.1568 86.5616L12.7148 86.3278C13.9718 83.9504 15.3238 81.6083 16.7713 79.3034L17.1947 79.5693C18.6139 77.3095 20.1255 75.0855 21.7303 72.899L21.3272 72.6031C22.9123 70.4434 24.5878 68.3202 26.3544 66.2352L26.7359 66.5584C28.4631 64.5197 30.278 62.5175 32.1812 60.5533L31.8221 60.2054C33.6793 58.2886 35.62 56.4082 37.6448 54.5654L37.9813 54.9351C39.9421 53.1506 41.9823 51.4014 44.1024 49.6888L43.7882 49.2998C45.8681 47.6197 48.0244 45.9748 50.2577 44.3664L50.5499 44.7722C52.7102 43.2164 54.943 41.6947 57.2487 40.2082L56.9778 39.788C59.2067 38.351 61.5034 36.9471 63.8682 35.5771L64.1189 36.0097C66.4297 34.671 68.8061 33.3647 71.2483 32.0917L71.0172 31.6483C73.3738 30.4199 75.7914 29.2227 78.2704 28.0573L78.4831 28.5098C80.8859 27.3803 83.3467 26.2807 85.8658 25.2118L85.6705 24.7515C88.1396 23.7039 90.6643 22.6859 93.245 21.6981L93.4238 22.1651C95.8905 21.221 98.4086 20.3045 100.978 19.4163L100.815 18.9438C103.366 18.0621 105.968 17.2083 108.621 16.383L108.769 16.8604C111.281 16.0788 113.84 15.3228 116.444 14.5928L116.309 14.1114C118.909 13.3827 121.555 12.68 124.246 12.0039L124.368 12.4888C126.923 11.8469 129.52 11.2289 132.159 10.6354L132.049 10.1475C134.69 9.55351 137.372 8.9839 140.097 8.43914L140.195 8.92943C142.776 8.41321 145.395 7.91931 148.052 7.44814L147.965 6.95582C150.626 6.48402 153.324 6.03498 156.061 5.60909L156.138 6.10315C158.749 5.69665 161.396 5.31125 164.078 4.94728L164.01 4.45183C166.675 4.09014 169.374 3.7496 172.108 3.43055L172.166 3.92718C174.814 3.6181 177.494 3.32918 180.208 3.06075L180.158 2.56318C182.816 2.3002 185.506 2.05685 188.226 1.83342L188.267 2.33175C190.957 2.1108 193.678 1.90935 196.43 1.72765L196.397 1.22874C199.04 1.05423 201.711 0.89794 204.411 0.760104L204.436 1.25945C207.133 1.12174 209.859 1.00247 212.613 0.901866L212.595 0.402199C215.258 0.304914 217.948 0.225081 220.665 0.162915L220.676 0.662785C223.347 0.601672 226.043 0.557646 228.766 0.530914L228.761 0.0309377C231.48 0.0042307 234.226 -0.00522994 236.998 0.00275975L236.996 0.502758C239.636 0.510367 242.299 0.533819 244.986 0.573291L244.994 0.0733452C247.683 0.112846 250.395 0.168377 253.132 0.240115L253.118 0.739943C255.82 0.810768 258.544 0.897403 261.292 1.00002L261.311 0.500366C263.962 0.599354 266.634 0.713202 269.328 0.842062L269.304 1.34149C271.996 1.47027 274.71 1.61405 277.445 1.77299L277.474 1.27383C280.169 1.43041 282.885 1.6017 285.622 1.78782L285.588 2.28667C288.237 2.46679 290.905 2.66082 293.593 2.8689L293.632 2.37039C296.321 2.57858 299.031 2.80083 301.76 3.03726L301.717 3.5354C304.412 3.76883 307.126 4.0161 309.86 4.27733L309.908 3.77959C312.55 4.03208 315.21 4.29761 317.889 4.57628L317.837 5.07359C320.514 5.35213 323.209 5.6438 325.923 5.94874L325.979 5.45187C328.687 5.75622 331.414 6.07378 334.158 6.40465L334.099 6.90106C336.725 7.21773 339.369 7.54661 342.029 7.88779L342.093 7.39185C344.755 7.73319 347.433 8.08684 350.128 8.45289L350.061 8.94835C352.755 9.31424 355.465 9.69254 358.193 10.0833L358.263 9.5884C360.909 9.96753 363.571 10.3584 366.249 10.7612L366.174 11.2556C368.814 11.6526 371.468 12.061 374.138 12.4811L374.216 11.9872C376.887 12.4075 379.573 12.8394 382.275 13.2829L382.194 13.7763C384.875 14.2164 387.571 14.668 390.282 15.1312L390.366 14.6384C392.982 15.0852 395.611 15.5429 398.255 16.0114L398.168 16.5037C400.811 16.9721 403.468 17.4513 406.139 17.9415L406.23 17.4497C408.902 17.94 411.589 18.4413 414.29 18.9537L414.197 19.4449C415.547 19.701 416.9 19.9598 418.257 20.2214C419.582 20.4767 420.904 20.7304 422.225 20.9824L422.318 20.4913C424.958 20.9952 427.589 21.4925 430.211 21.9834L430.119 22.4749C432.741 22.9659 435.355 23.4505 437.959 23.9288L438.049 23.4371C440.676 23.9196 443.293 24.3957 445.901 24.8658L445.812 25.3578C448.461 25.8353 451.1 26.3064 453.73 26.7714L453.817 26.2791C456.446 26.744 459.065 27.2028 461.674 27.6557L461.589 28.1483C464.218 28.6047 466.837 29.0552 469.447 29.4998L469.53 29.0069C472.185 29.4594 474.83 29.9059 477.464 30.3466L477.381 30.8397C480.016 31.2805 482.639 31.7156 485.252 32.1451L485.333 31.6517C487.967 32.0847 490.59 32.512 493.203 32.934L493.123 33.4276C495.783 33.8573 498.431 34.2814 501.068 34.7001L501.146 34.2063C503.783 34.625 506.408 35.0384 509.021 35.4466L508.944 35.9407C511.587 36.3535 514.217 36.7611 516.836 37.1638L516.912 36.6696C519.573 37.0788 522.222 37.4829 524.859 37.8821L524.784 38.3765C527.421 38.7758 530.045 39.1703 532.656 39.5602L532.73 39.0657C535.384 39.4618 538.025 39.8533 540.653 40.2403L540.58 40.735C543.24 41.1268 545.887 41.5141 548.52 41.897L548.592 41.4022C551.225 41.7852 553.845 42.1639 556.45 42.5386L556.379 43.0335C559.049 43.4174 561.704 43.7971 564.345 44.173L564.416 43.678C567.071 44.0559 569.711 44.4299 572.336 44.8003L572.267 45.2954C574.904 45.6675 577.526 46.036 580.134 46.4012L580.203 45.906C582.881 46.281 585.542 46.6525 588.188 47.0209L588.119 47.5162C590.764 47.8846 593.394 48.2499 596.007 48.6124L596.076 48.1171C598.737 48.4862 601.381 48.8524 604.008 49.2161L603.939 49.7114L607.193 50.1618L611.883 50.8111L611.952 50.3158C614.586 50.6806 617.203 51.0432 619.801 51.4039L619.733 51.8992C622.418 52.2719 625.084 52.6427 627.731 53.012L627.8 52.5167C630.447 52.886 633.074 53.2538 635.683 53.6205L635.613 54.1156C638.28 54.4906 640.927 54.8643 643.553 55.2374L643.623 54.7424C646.286 55.1206 648.927 55.4982 651.547 55.8755L651.476 56.3704C654.124 56.7517 656.75 57.1328 659.354 57.5141L659.427 57.0193C662.103 57.4112 664.756 57.8033 667.386 58.1963L667.312 58.6908C669.944 59.0841 672.553 59.4782 675.138 59.8736L675.214 59.3793C677.901 59.7904 680.564 60.203 683.2 60.6176L683.122 61.1115C685.758 61.526 688.368 61.9426 690.952 62.3617L691.032 61.8682C693.712 62.3029 696.364 62.7405 698.987 63.1817L698.905 63.6747C701.542 64.1182 704.151 64.5652 706.731 65.0164L706.818 64.5239C709.49 64.9913 712.132 65.4633 714.743 65.9405L714.653 66.4324C717.286 66.9138 719.888 67.4007 722.457 67.8936L722.552 67.4026C725.22 67.9146 727.854 68.4333 730.453 68.9594L730.354 69.4495C732.975 69.9801 735.56 70.5184 738.109 71.0651L738.214 70.5762C740.88 71.1482 743.507 71.7294 746.094 72.321L745.982 72.8084C748.592 73.4053 751.161 74.0126 753.689 74.6315L753.808 74.1459C756.458 74.7945 759.062 75.4559 761.621 76.1312L761.493 76.6146C764.103 77.3033 766.664 78.0064 769.178 78.7251L769.315 78.2444C771.916 78.9879 774.464 79.7483 776.961 80.5269L776.812 81.0042C779.412 81.815 781.955 82.6454 784.441 83.4971L784.603 83.0241C787.158 83.8996 789.653 84.7977 792.087 85.7201L791.91 86.1877C794.447 87.1492 796.917 88.137 799.32 89.1531L799.515 88.6926C802.031 89.7564 804.473 90.8514 806.841 91.9797L806.626 92.4311C809.071 93.596 811.436 94.7962 813.719 96.0341L813.957 95.5946C816.338 96.8851 818.631 98.2168 820.836 99.5927L820.571 100.017C822.872 101.453 825.076 102.937 827.181 104.472L827.476 104.067C829.675 105.671 831.767 107.329 833.752 109.048L833.425 109.426C835.459 111.187 837.379 113.011 839.182 114.901L839.544 114.556C841.401 116.502 843.136 118.518 844.747 120.609L844.351 120.915C845.97 123.017 847.464 125.194 848.829 127.451L849.257 127.192C850.63 129.463 851.875 131.813 852.989 134.249L852.535 134.457C853.624 136.838 854.588 139.301 855.426 141.851L855.901 141.695C856.721 144.192 857.42 146.771 857.996 149.435L857.507 149.541C858.052 152.065 858.487 154.667 858.81 157.351L859.306 157.291Z" stroke="#CFCFCF" stroke-dasharray="8 8"/>
</svg>
